<svg width="265" height="192" viewBox="0 0 265 192" fill="none" xmlns="http://www.w3.org/2000/svg">
<rect width="265" height="192" rx="16" fill="#C7DCDA" fill-opacity="0.75"/>
<g clip-path="url(#clip0_201_44541)">
<path d="M184.635 40.6024L166.903 40.7752C166.07 36.6719 163.269 25.9058 165.791 22.9692C165.906 21.864 166.443 20.8456 167.29 20.1262C168.137 19.4068 169.229 19.0417 170.338 19.1069C173.086 14.8048 177.664 15.4508 180.758 18.1376C183.872 19.2121 185.046 21.1209 184.635 23.7112C186.941 25.7298 187.367 28.1856 186.332 30.9811L184.635 40.6024Z" fill="#2F2E41"/>
<path d="M182.928 51.5263L170.135 49.7549L167.576 46.0154C171.101 43.6774 172.348 40.4119 170.725 35.9776L179.582 35.7808C179.167 39.7296 180.473 42.7871 184.109 44.6376L182.928 51.5263Z" fill="#FFB9B9"/>
<path d="M167.11 166.918L166.621 173.606C166.599 173.908 166.642 174.212 166.747 174.497C166.851 174.782 167.016 175.041 167.229 175.257C167.443 175.473 167.7 175.641 167.983 175.749C168.267 175.858 168.57 175.904 168.873 175.886L172.308 175.678C172.467 175.668 172.622 175.624 172.762 175.547C172.902 175.471 173.024 175.365 173.118 175.236C173.212 175.107 173.277 174.96 173.308 174.803C173.338 174.647 173.334 174.485 173.296 174.331L171.389 166.704L167.11 166.918Z" fill="#E6E6E6"/>
<path d="M178.23 166.704L176.323 174.331C176.285 174.485 176.281 174.647 176.311 174.803C176.342 174.96 176.407 175.107 176.501 175.236C176.595 175.365 176.717 175.471 176.857 175.547C176.997 175.624 177.152 175.668 177.311 175.678L180.746 175.886C181.049 175.904 181.352 175.858 181.636 175.749C181.919 175.641 182.176 175.473 182.39 175.257C182.603 175.041 182.767 174.782 182.872 174.497C182.977 174.212 183.02 173.908 182.998 173.606L182.509 166.918L178.23 166.704Z" fill="#E6E6E6"/>
<path d="M182.731 167.846L178.095 167.381L173.48 118.051L171.736 167.222L167.182 167.059L159.506 98.9595H188.832L182.731 167.846Z" fill="#6C63FF"/>
<path d="M175.646 39.1268C180.537 39.1268 184.503 35.1615 184.503 30.27C184.503 25.3784 180.537 21.4131 175.646 21.4131C170.754 21.4131 166.789 25.3784 166.789 30.27C166.789 35.1615 170.754 39.1268 175.646 39.1268Z" fill="#FFB9B9"/>
<path d="M193.163 100.534L157.342 100.928C162.658 80.69 165.838 61.8911 160.294 48.9673L169.151 44.6373C173.422 49.0916 178.178 48.6324 183.322 44.2437L191.785 46.4087C190.336 63.3562 190.985 81.5071 193.163 100.534Z" fill="#6C63FF"/>
<path d="M147.5 79.6713L169.741 88.5282L174.713 89.9907C174.935 90.0561 175.169 90.0759 175.399 90.0488C175.629 90.0218 175.852 89.9485 176.053 89.8333C176.254 89.7181 176.43 89.5635 176.57 89.3786C176.71 89.1938 176.811 88.9825 176.867 88.7576C176.966 88.3633 176.921 87.9467 176.742 87.5819C176.563 87.2171 176.26 86.9275 175.888 86.7646L170.725 85.1822L155.176 76.1286L158.423 67.5669L151.633 63.9258L147.5 79.6713Z" fill="#FFB9B9"/>
<path d="M147.697 63.5324C151.929 65.1832 155.294 68.0006 157.932 71.7988L166.198 59.7928L160.294 48.9678L147.697 63.5324Z" fill="#6C63FF"/>
<path d="M185.628 28.8341C182.034 27.9079 178.499 27.7807 175.064 28.9556C172.875 30.0155 170.247 29.9178 167.324 29.0445V20.208L183.104 20.6288L185.628 28.8341Z" fill="#2F2E41"/>
<path d="M169.668 69.3521C168.973 69.3528 168.306 69.6294 167.814 70.1212C167.322 70.613 167.046 71.2798 167.045 71.9752L168.08 93.6498C168.081 94.3453 168.358 95.0121 168.85 95.5038C169.341 95.9956 170.008 96.2722 170.704 96.273H182.542C183.237 96.2722 183.904 95.9956 184.396 95.5038C184.887 95.0121 185.164 94.3453 185.165 93.6498L186.2 71.9752C186.199 71.2798 185.923 70.613 185.431 70.1212C184.939 69.6294 184.273 69.3528 183.577 69.3521H169.668Z" fill="#3F3D56"/>
<path d="M203.256 78.0339L183.87 85.753L182.408 86.3354C182.361 86.3536 182.315 86.3691 182.265 86.3846L177.365 87.8264C176.739 88.0102 175.872 87.1664 175.364 86.5839C175.113 86.3033 174.971 85.9419 174.963 85.5653C174.956 85.1887 175.083 84.8218 175.323 84.5312C175.391 84.4532 175.465 84.3813 175.546 84.3164C175.734 84.1694 175.957 84.0716 176.193 84.0316L181.088 83.0687C181.263 83.0342 181.432 82.9713 181.587 82.8823L183.87 81.5518L195.723 74.6507C196.053 74.4591 196.304 74.1567 196.431 73.7974C196.559 73.4381 196.555 73.0451 196.42 72.6886L194.157 66.722C194.018 66.3569 194.017 65.9538 194.154 65.588C194.291 65.2221 194.556 64.9186 194.9 64.734L198.648 62.7252C198.863 62.6103 199.1 62.5454 199.343 62.5355C199.586 62.5256 199.828 62.571 200.051 62.6682C200.273 62.7654 200.471 62.9119 200.629 63.0966C200.787 63.2814 200.901 63.4996 200.963 63.7348L204.216 76.1288C204.316 76.5088 204.274 76.9124 204.097 77.2633C203.92 77.6142 203.621 77.8883 203.256 78.0339Z" fill="#FFB9B9"/>
<path d="M204.382 61.367C200.15 63.0178 196.785 65.8351 194.147 69.6334L185.881 57.6274L191.785 46.4087L204.382 61.367Z" fill="#6C63FF"/>
<path d="M181.54 38.1527C177.665 39.7644 173.602 39.6989 169.373 38.1527C170.604 36.0524 168.765 34.4074 167.82 32.2871L183.61 31.8179C182.403 33.6598 180.621 35.836 181.54 38.1527Z" fill="white"/>
<path d="M183.445 32.1685L183.262 31.9855L183.521 31.7266L185.067 29.9219L185.264 30.0901L183.711 31.9021L183.445 32.1685Z" fill="white"/>
<path d="M166.738 31.0716L166.572 31.2705L168.125 32.5648L168.291 32.3658L166.738 31.0716Z" fill="white"/>
<path d="M183.89 33.6902L181.172 37.9609L181.39 38.1L184.109 33.8293L183.89 33.6902Z" fill="white"/>
<path d="M167.025 33.6901L166.807 33.8291L169.525 38.1002L169.743 37.9612L167.025 33.6901Z" fill="white"/>
<path d="M184.388 81.1855V85.8751L182.756 86.5252C182.704 86.5455 182.652 86.5628 182.597 86.5801L177.127 88.1895C176.428 88.3947 175.46 87.4527 174.893 86.8026C174.613 86.4893 174.454 86.0859 174.446 85.6655C174.437 85.2451 174.58 84.8356 174.847 84.5113C174.923 84.4241 175.006 84.3439 175.096 84.2715C175.306 84.1074 175.555 83.9982 175.818 83.9536L181.282 82.8787C181.478 82.8403 181.666 82.77 181.84 82.6707L184.388 81.1855Z" fill="white"/>
<path d="M186.753 64.4584H185.818C185.818 51.2281 183.094 42.0082 180.439 42.0082L180.205 41.0728C182.586 41.0728 184.104 44.91 184.958 48.1292C186.115 52.4933 186.753 58.2925 186.753 64.4584Z" fill="#3F3D56"/>
<path d="M165.238 61.1845H164.303C164.303 49.0677 167.046 41.5405 171.085 41.5405L170.851 42.476C168.057 42.476 165.238 48.2608 165.238 61.1845Z" fill="#3F3D56"/>
<path d="M186.286 67.0311C187.577 67.0311 188.624 65.9841 188.624 64.6926C188.624 63.401 187.577 62.354 186.286 62.354C184.994 62.354 183.947 63.401 183.947 64.6926C183.947 65.9841 184.994 67.0311 186.286 67.0311Z" fill="#3F3D56"/>
<path d="M161.498 66.7971H160.562C160.562 63.4444 162.451 60.7168 164.772 60.7168V61.6522C162.967 61.6522 161.498 63.9602 161.498 66.7971Z" fill="#3F3D56"/>
<path d="M168.981 66.7971H168.045C168.045 63.9602 166.577 61.6522 164.771 61.6522V60.7168C167.093 60.7168 168.981 63.4444 168.981 66.7971Z" fill="#3F3D56"/>
<path d="M168.514 67.9666C169.03 67.9666 169.449 67.5477 169.449 67.0311C169.449 66.5145 169.03 66.0957 168.514 66.0957C167.997 66.0957 167.578 66.5145 167.578 67.0311C167.578 67.5477 167.997 67.9666 168.514 67.9666Z" fill="#3F3D56"/>
<path d="M161.029 67.9666C161.546 67.9666 161.965 67.5477 161.965 67.0311C161.965 66.5145 161.546 66.0957 161.029 66.0957C160.513 66.0957 160.094 66.5145 160.094 67.0311C160.094 67.5477 160.513 67.9666 161.029 67.9666Z" fill="#3F3D56"/>
<path d="M108.223 35.5948L91.7948 38.3769C91.389 38.4461 90.9719 38.3623 90.6243 38.1418C90.2766 37.9212 90.0232 37.5795 89.913 37.1829C88.726 32.8989 86.2445 27.3104 88.6538 24.505C88.7765 23.3248 89.3497 22.2374 90.2541 21.4691C91.1584 20.7009 92.3242 20.311 93.5087 20.3807C96.4436 15.7867 101.332 16.4765 104.636 19.3456C107.961 20.493 109.215 22.5313 108.776 25.2974C110.213 26.5547 110.966 27.971 111.125 29.5255C111.2 30.3905 111.09 31.2617 110.802 32.0808C110.514 32.8999 110.054 33.6482 109.454 34.2757L108.223 35.5948Z" fill="#2F2E41"/>
<path d="M105.669 48.5285L92.9336 47.7794C94.1817 44.9147 94.6803 42.1561 94.1822 39.5386H103.672C103.65 41.5483 104.65 45.0247 105.669 48.5285Z" fill="#9F616A"/>
<path d="M90.339 166.211L89.8166 173.352C89.793 173.675 89.8387 174 89.9508 174.304C90.0628 174.608 90.2386 174.885 90.4664 175.115C90.6941 175.346 90.9685 175.525 91.2712 175.641C91.5739 175.757 91.8979 175.807 92.2214 175.787L95.8894 175.565C96.0594 175.555 96.225 175.507 96.3745 175.426C96.5239 175.344 96.6536 175.23 96.7543 175.093C96.8549 174.956 96.9241 174.798 96.9569 174.631C96.9897 174.464 96.9853 174.292 96.944 174.126L94.908 165.982L90.339 166.211Z" fill="#E6E6E6"/>
<path d="M102.214 165.982L100.178 174.126C100.137 174.292 100.132 174.464 100.165 174.631C100.198 174.798 100.267 174.956 100.368 175.093C100.469 175.23 100.598 175.344 100.748 175.425C100.897 175.507 101.063 175.555 101.233 175.565L104.901 175.787C105.224 175.807 105.548 175.757 105.851 175.641C106.154 175.525 106.428 175.346 106.656 175.115C106.884 174.885 107.059 174.608 107.171 174.304C107.283 174 107.329 173.675 107.306 173.352L106.783 166.211L102.214 165.982Z" fill="#E6E6E6"/>
<path d="M107.02 167.202L102.07 166.706L97.142 114.029L95.2795 166.536L90.4164 166.362L82.2197 93.6421H113.535L107.02 167.202Z" fill="#6C63FF"/>
<path d="M99.1775 42.5702C104.401 42.5702 108.635 38.3359 108.635 33.1125C108.635 27.8892 104.401 23.6548 99.1775 23.6548C93.9541 23.6548 89.7197 27.8892 89.7197 33.1125C89.7197 38.3359 93.9541 42.5702 99.1775 42.5702Z" fill="#9F616A"/>
<path d="M109.837 28.5942C105.998 27.9257 102.224 27.8339 98.5557 28.6819C96.2187 29.4469 93.4122 29.3764 90.291 28.746V22.3682L107.141 22.6719L109.837 28.5942Z" fill="#2F2E41"/>
<path d="M105.471 40.7011C101.334 42.4221 96.9955 42.3523 92.4798 40.7011C93.7938 38.4583 91.8296 36.7017 90.8213 34.4376L107.683 33.9365C106.393 35.9034 104.491 38.2272 105.471 40.7011Z" fill="white"/>
<path d="M89.6609 33.1458L89.4951 33.3447L91.1535 34.7267L91.3193 34.5278L89.6609 33.1458Z" fill="white"/>
<path d="M107.988 35.9405L105.085 40.501L105.303 40.64L108.206 36.0795L107.988 35.9405Z" fill="white"/>
<path d="M89.9626 35.9401L89.7441 36.0791L92.6465 40.64L92.8649 40.501L89.9626 35.9401Z" fill="white"/>
<path d="M81.197 76.2478L73.9551 71.7528L80.1312 53.6643C80.82 51.7978 82.1394 50.2306 83.8612 49.2338L85.9417 48.0293L86.1226 66.2772L81.197 76.2478Z" fill="#6C63FF"/>
<path d="M112.499 85.0329L111.428 75.8559C111.371 71.0119 112.195 66.3288 114.16 62.0136L115.159 48.5287L104.171 44.0337C104.137 44.2576 104.109 44.4814 104.077 44.7052L98.9268 47.2801L93.9046 46.1387L93.9324 44.5331L83.9436 49.0281C87.2469 64.3855 85.4452 80.3335 79.7646 99.1707L92.9241 102.769L93.0335 96.4502L104.761 95.6125C104.882 97.6626 104.979 99.6762 105.036 101.645C111.653 104.082 111.881 104.041 117.91 100.553C115.509 95.5044 113.608 90.251 112.499 85.0329Z" fill="#6C63FF"/>
<path d="M129.393 74.0002L122.65 71.7528L111.865 59.1975L115.158 48.5288L130.142 69.5054L129.393 74.0002Z" fill="#6C63FF"/>
<path d="M108.262 83.7204C108.372 84.2046 108.67 84.6252 109.09 84.8901C109.51 85.155 110.018 85.2425 110.502 85.1335L116.226 83.8374L115.399 80.1841L109.675 81.48C109.191 81.5898 108.77 81.8875 108.505 82.3076C108.24 82.7277 108.152 83.2359 108.262 83.7204Z" fill="#E6E6E6"/>
<path d="M113.411 79.4942L116.658 85.4875C122.118 83.9646 126.85 79.1635 131.391 73.5009L130.142 69.5054L122.401 71.5031L113.411 79.4942Z" fill="#6C63FF"/>
<path d="M71.083 60.6943L77.3152 61.8072L91.5603 82.0618L83.9926 80.2811L71.083 60.6943Z" fill="#E6E6E6"/>
<path d="M69.9772 60.4463C69.8822 60.4477 69.7894 60.4746 69.7084 60.5242C69.6274 60.5738 69.5612 60.6443 69.5167 60.7282C69.4723 60.8121 69.4512 60.9065 69.4557 61.0014C69.4602 61.0962 69.4901 61.1882 69.5422 61.2675L82.8576 81.4702C82.9319 81.5831 83.0467 81.6633 83.1783 81.6942L89.3735 83.1518C89.478 83.1764 89.5874 83.1686 89.6874 83.1296C89.7873 83.0905 89.873 83.022 89.9331 82.9331C89.9932 82.8442 90.0249 82.7391 90.0239 82.6318C90.0229 82.5245 89.9893 82.42 89.9276 82.3323L75.3081 61.5453C75.2685 61.4886 75.2181 61.4404 75.1598 61.4032C75.1015 61.3661 75.0364 61.3408 74.9683 61.3289L70.077 60.4553C70.0441 60.4494 70.0107 60.4464 69.9772 60.4463Z" fill="#3F3D56"/>
<path d="M78.2842 74.8911L78.6543 78.6186L84.4939 78.0389C84.9882 77.9899 85.4428 77.7465 85.7576 77.3623C86.0725 76.978 86.2218 76.4845 86.1727 75.9902C86.1237 75.4959 85.8803 75.0413 85.496 74.7265C85.1118 74.4117 84.6183 74.2624 84.124 74.3114L78.2842 74.8911Z" fill="#E6E6E6"/>
<path d="M73.2061 74.4594C73.2145 75.7304 73.725 76.9466 74.6262 77.8428C75.5275 78.7391 76.7464 79.2429 78.0175 79.2443H78.9777L79.6767 73.4187L73.8886 71.335L73.2061 74.4594Z" fill="#6C63FF"/>
<path d="M107.221 34.581L107.038 34.398L107.315 34.1215L108.966 32.1938L109.163 32.3621L107.504 34.297L107.221 34.581Z" fill="white"/>
<path d="M216.5 175.482H56.5V176H216.5V175.482Z" fill="#DCDCDC"/>
</g>
<defs>
<clipPath id="clip0_201_44541">
<rect width="160" height="160" fill="white" transform="translate(52.5 16)"/>
</clipPath>
</defs>
</svg>
