<svg width="265" height="192" viewBox="0 0 265 192" fill="none" xmlns="http://www.w3.org/2000/svg">
<rect width="265" height="192" rx="16" fill="#C7DCDA" fill-opacity="0.75"/>
<g clip-path="url(#clip0_201_44603)">
<path d="M157.637 175.489C157.433 175.663 157.223 175.832 157.011 175.999H131.258C131.11 175.832 130.962 175.663 130.817 175.489C129.628 174.063 128.581 172.524 127.691 170.894C125.577 167.085 124.849 162.092 124.849 157.006C124.849 156.696 124.851 156.385 124.857 156.075C124.881 154.648 124.96 153.219 125.078 151.814C125.099 151.57 125.121 151.327 125.144 151.085C125.335 149.07 125.603 147.107 125.907 145.274C125.945 145.04 125.984 144.809 126.025 144.58C126.645 140.938 127.476 137.335 128.514 133.79C128.514 133.79 128.548 133.798 128.615 133.815C128.805 133.869 129.262 133.995 129.932 134.194C131.779 134.743 135.247 135.848 139.246 137.491C139.465 137.579 139.685 137.671 139.908 137.765C143.292 139.16 146.567 140.805 149.706 142.686C149.901 142.804 150.094 142.924 150.287 143.044V143.061L149.865 156.721L153.635 145.349C154.404 145.934 155.139 146.54 155.839 147.167C156.032 147.339 156.225 147.514 156.411 147.697C158.003 149.155 159.361 150.849 160.439 152.72C166.079 162.889 163.712 170.365 157.637 175.489Z" fill="#F2F2F2"/>
<path d="M154.006 175.999H153.32C153.316 175.83 153.31 175.661 153.299 175.489C153.023 170.35 150.818 164.676 147.817 159.198C147.71 158.999 147.601 158.795 147.485 158.596C146.028 155.991 144.404 153.442 142.727 151.019C142.599 150.831 142.466 150.64 142.333 150.452C140.101 147.266 137.796 144.318 135.714 141.801C135.568 141.621 135.418 141.446 135.27 141.272C132.183 137.571 129.636 134.874 128.615 133.815C128.462 133.659 128.345 133.539 128.263 133.456C128.188 133.374 128.143 133.331 128.135 133.323L128.375 133.083L128.377 133.076L128.621 132.836C128.63 132.847 128.777 132.989 129.039 133.261C129.259 133.486 129.561 133.8 129.932 134.195C131.226 135.566 133.366 137.898 135.842 140.857C135.986 141.028 136.134 141.206 136.281 141.384C137.972 143.425 139.803 145.739 141.618 148.226C142.074 148.851 142.517 149.472 142.946 150.087C143.081 150.276 143.214 150.464 143.342 150.653C145.156 153.271 146.741 155.788 148.096 158.206L148.434 158.812C151.887 165.11 153.747 170.689 153.987 175.489C153.995 175.661 154.001 175.83 154.006 175.999Z" fill="white"/>
<path d="M139.624 136.99C139.502 137.159 139.377 137.327 139.247 137.492C138.264 138.758 137.12 139.889 135.843 140.857C135.656 140.994 135.466 141.135 135.271 141.272C134.739 141.643 134.189 141.987 133.621 142.301C131.285 143.602 128.693 144.38 126.025 144.58C125.94 144.589 125.852 144.595 125.766 144.599C125.727 144.828 125.691 145.058 125.65 145.291C125.736 145.287 125.822 145.283 125.907 145.274C128.733 145.09 131.482 144.28 133.956 142.903C134.561 142.567 135.148 142.199 135.714 141.802C135.907 141.667 136.096 141.525 136.282 141.384C137.648 140.346 138.868 139.129 139.909 137.766C140.033 137.601 140.155 137.434 140.275 137.267C140.052 137.172 139.836 137.08 139.624 136.99Z" fill="white"/>
<path d="M149.941 142.202C149.866 142.365 149.786 142.526 149.707 142.686C148.18 145.73 145.84 148.292 142.947 150.087C142.745 150.214 142.542 150.336 142.334 150.452C142.272 150.488 142.205 150.527 142.143 150.561C139.557 151.996 136.665 152.793 133.708 152.884C130.751 152.975 127.815 152.359 125.145 151.086C125.081 151.056 125.019 151.026 124.957 150.996C124.933 151.24 124.912 151.484 124.895 151.731C124.954 151.758 125.017 151.788 125.079 151.814C127.826 153.08 130.832 153.681 133.855 153.568C136.877 153.455 139.831 152.631 142.475 151.163C142.561 151.116 142.645 151.069 142.728 151.019C142.936 150.899 143.141 150.777 143.343 150.653C146.308 148.805 148.71 146.179 150.288 143.061C150.371 142.9 150.451 142.738 150.528 142.573C150.333 142.448 150.138 142.324 149.941 142.202Z" fill="white"/>
<path d="M155.954 146.681C155.917 146.844 155.881 147.007 155.84 147.167C154.738 151.69 151.973 155.631 148.096 158.206C147.897 158.341 147.691 158.47 147.486 158.596C147.265 158.729 147.044 158.862 146.817 158.986C143.328 160.917 139.311 161.677 135.357 161.153C131.404 160.628 127.723 158.848 124.858 156.075C124.809 156.03 124.762 155.982 124.714 155.935C124.714 156.254 124.712 156.569 124.717 156.886C124.759 156.927 124.804 156.968 124.849 157.006C127.833 159.709 131.587 161.412 135.586 161.874C139.586 162.337 143.629 161.538 147.152 159.588C147.379 159.463 147.601 159.335 147.818 159.198C148.028 159.074 148.231 158.945 148.435 158.812C152.367 156.211 155.206 152.255 156.412 147.697C156.453 147.542 156.493 147.388 156.53 147.232C156.344 147.043 156.149 146.865 155.954 146.681Z" fill="white"/>
<path d="M137.993 111.798H16V20.2715H137.993V111.798Z" fill="white"/>
<path d="M45.561 39.374C48.2429 39.374 50.417 37.1999 50.417 34.5181C50.417 31.8362 48.2429 29.6621 45.561 29.6621C42.8792 29.6621 40.7051 31.8362 40.7051 34.5181C40.7051 37.1999 42.8792 39.374 45.561 39.374Z" fill="#E6E6E6"/>
<path d="M56.7756 31.2808C56.5613 31.2811 56.3558 31.3666 56.2043 31.5183C56.0528 31.6701 55.9678 31.8757 55.9678 32.0901C55.9678 32.3045 56.0528 32.5101 56.2043 32.6618C56.3558 32.8136 56.5613 32.899 56.7756 32.8994H115.866C116.08 32.899 116.286 32.8136 116.437 32.6618C116.589 32.5101 116.674 32.3045 116.674 32.0901C116.674 31.8757 116.589 31.6701 116.437 31.5183C116.286 31.3666 116.08 31.2811 115.866 31.2808H56.7756Z" fill="#E6E6E6"/>
<path d="M56.7759 36.1367C56.5612 36.1363 56.3552 36.2211 56.2031 36.3726C56.051 36.524 55.9653 36.7297 55.9648 36.9443C55.9644 37.159 56.0492 37.365 56.2007 37.5171C56.3521 37.6692 56.5578 37.7549 56.7725 37.7554H94.1298C94.2362 37.7556 94.3416 37.7348 94.44 37.6942C94.5383 37.6536 94.6277 37.594 94.703 37.5188C94.7783 37.4437 94.8381 37.3544 94.8788 37.2561C94.9196 37.1578 94.9406 37.0524 94.9406 36.946C94.9406 36.8396 94.9196 36.7343 94.8788 36.636C94.8381 36.5377 94.7783 36.4484 94.703 36.3733C94.6277 36.2981 94.5383 36.2385 94.44 36.1979C94.3416 36.1573 94.2362 36.1365 94.1298 36.1367H56.7759Z" fill="#E6E6E6"/>
<path d="M137.993 111.798H16V20.2715H137.993V111.798ZM17.3654 110.433H136.627V21.6369H17.3654V110.433Z" fill="#E6E6E6"/>
<path d="M22.8184 48.1836V102.622H131.174V48.1836H22.8184ZM130.653 61.663H104.215V48.7045H130.653V61.663ZM77.2567 61.663V48.7045H103.695V61.663H77.2567ZM103.695 62.1839V75.1423H77.2567V62.1839H103.695ZM76.7358 61.663H50.298V48.7045H76.7358V61.663ZM76.7358 62.1839V75.1423H50.298V62.1839H76.7358ZM49.7771 75.1423H23.3393V62.1839H49.7771V75.1423ZM49.7771 75.6633V88.6217H23.3393V75.6633H49.7771ZM50.298 75.6633H76.7358V88.6217H50.298V75.6633ZM76.7358 89.1426V102.101H50.298V89.1426H76.7358ZM77.2567 89.1426H103.695V102.101H77.2567V89.1426ZM77.2567 88.6217V75.6633H103.695V88.6217H77.2567ZM104.215 75.6633H130.653V88.6217H104.215V75.6633ZM104.215 75.1423V62.1839H130.653V75.1423H104.215ZM49.7771 48.7045V61.663H23.3393V48.7045H49.7771ZM23.3393 89.1426H49.7771V102.101H23.3393V89.1426ZM104.215 102.101V89.1426H130.653V102.101H104.215Z" fill="#E4E4E4"/>
<path d="M67.2998 62.829L56.5182 62.5849C55.4397 58.4073 55.9253 54.4296 56.7858 50.7642L67.5674 51.0083C66.4769 54.862 66.3848 58.9299 67.2998 62.829Z" fill="#6C63FF"/>
<path d="M58.6328 53.3765L58.6385 52.9663L64.2243 53.1658L64.2183 53.5761L58.6328 53.3765Z" fill="white"/>
<path d="M58.6094 55.0177L58.6151 54.6074L64.2006 54.8072L64.1949 55.2174L58.6094 55.0177Z" fill="white"/>
<path d="M58.5859 56.6583L58.5919 56.248L64.1775 56.4478L64.1717 56.8581L58.5859 56.6583Z" fill="white"/>
<path d="M58.5625 58.2994L58.5682 57.8892L64.154 58.0889L64.148 58.4992L58.5625 58.2994Z" fill="white"/>
<path d="M58.5391 59.9405L58.5448 59.5303L64.1306 59.7301L64.1246 60.1403L58.5391 59.9405Z" fill="white"/>
<path d="M43.8574 93.0434L33.0758 92.7993C31.9973 88.6217 32.4829 84.644 33.3435 80.9785L44.125 81.2226C43.0345 85.0764 42.9424 89.1442 43.8574 93.0434Z" fill="#F0F0F0"/>
<path d="M35.1904 83.5914L35.1962 83.1812L40.782 83.3807L40.776 83.7909L35.1904 83.5914Z" fill="white"/>
<path d="M35.167 85.232L35.1727 84.8218L40.7583 85.0216L40.7525 85.4318L35.167 85.232Z" fill="white"/>
<path d="M35.1436 86.8731L35.1495 86.4629L40.7351 86.6627L40.7293 87.0729L35.1436 86.8731Z" fill="white"/>
<path d="M35.1201 88.5142L35.1258 88.104L40.7116 88.3038L40.7057 88.714L35.1201 88.5142Z" fill="white"/>
<path d="M35.0967 90.1549L35.1024 89.7446L40.6882 89.9444L40.6822 90.3547L35.0967 90.1549Z" fill="white"/>
<path d="M100.119 79.2387L89.3375 78.9946C88.2591 74.817 88.7446 70.8393 89.6052 67.1738L100.387 67.4179C99.2962 71.2717 99.2041 75.3395 100.119 79.2387Z" fill="#F0F0F0"/>
<path d="M91.4521 69.7862L91.4579 69.376L97.0437 69.5755L97.0377 69.9857L91.4521 69.7862Z" fill="white"/>
<path d="M91.4287 71.4273L91.4344 71.0171L97.02 71.2169L97.0142 71.6271L91.4287 71.4273Z" fill="white"/>
<path d="M91.4053 73.068L91.4113 72.6577L96.9968 72.8575L96.9911 73.2677L91.4053 73.068Z" fill="white"/>
<path d="M91.3818 74.7091L91.3876 74.2988L96.9734 74.4986L96.9674 74.9088L91.3818 74.7091Z" fill="white"/>
<path d="M91.3584 76.3502L91.3641 75.9399L96.9499 76.1397L96.9439 76.55L91.3584 76.3502Z" fill="white"/>
<path d="M95.4306 76.6337L84.649 76.3896C83.5706 72.212 84.0561 68.2343 84.9167 64.5688L95.6982 64.813C94.6077 68.6667 94.5156 72.7346 95.4306 76.6337Z" fill="#6C63FF"/>
<path d="M86.7637 67.1817L86.7694 66.7715L92.3552 66.971L92.3492 67.3812L86.7637 67.1817Z" fill="white"/>
<path d="M86.7402 68.8224L86.746 68.4121L92.3315 68.6119L92.3258 69.0221L86.7402 68.8224Z" fill="white"/>
<path d="M86.7168 70.4635L86.7228 70.0532L92.3083 70.253L92.3026 70.6632L86.7168 70.4635Z" fill="white"/>
<path d="M86.6934 72.1046L86.6991 71.6943L92.2849 71.8941L92.2789 72.3044L86.6934 72.1046Z" fill="white"/>
<path d="M86.6699 73.7452L86.6757 73.335L92.2614 73.5347L92.2555 73.945L86.6699 73.7452Z" fill="white"/>
<path d="M135.195 100.428L124.414 100.184C123.335 96.0059 123.821 92.0282 124.681 88.3628L135.463 88.6069C134.372 92.4606 134.28 96.5285 135.195 100.428Z" fill="#6C63FF"/>
<path d="M126.528 90.9752L126.534 90.5649L132.12 90.7647L132.114 91.175L126.528 90.9752Z" fill="white"/>
<path d="M126.505 92.6163L126.511 92.2061L132.096 92.4058L132.09 92.8161L126.505 92.6163Z" fill="white"/>
<path d="M126.481 94.2574L126.487 93.8472L132.073 94.0467L132.067 94.4569L126.481 94.2574Z" fill="white"/>
<path d="M126.458 95.8985L126.464 95.4883L132.05 95.6878L132.044 96.098L126.458 95.8985Z" fill="white"/>
<path d="M126.435 97.5396L126.44 97.1294L132.026 97.3292L132.02 97.7394L126.435 97.5396Z" fill="white"/>
<path d="M123.561 64.9125L112.78 64.6684C111.701 60.4908 112.187 56.5131 113.048 52.8477L123.829 53.0918C122.739 56.9455 122.646 61.0134 123.561 64.9125Z" fill="#F0F0F0"/>
<path d="M114.895 55.4605L114.9 55.0503L120.486 55.2498L120.48 55.6601L114.895 55.4605Z" fill="white"/>
<path d="M114.871 57.1012L114.877 56.6909L120.462 56.8907L120.457 57.3009L114.871 57.1012Z" fill="white"/>
<path d="M114.847 58.7423L114.853 58.332L120.438 58.5318L120.432 58.9421L114.847 58.7423Z" fill="white"/>
<path d="M114.824 60.3834L114.83 59.9731L120.416 60.1729L120.41 60.5832L114.824 60.3834Z" fill="white"/>
<path d="M114.801 62.024L114.807 61.6138L120.392 61.8136L120.386 62.2238L114.801 62.024Z" fill="white"/>
<path d="M134.615 91.7161C134.986 91.6246 135.334 91.4526 135.632 91.2124C135.93 90.9721 136.172 90.6694 136.34 90.3256C136.509 89.9817 136.6 89.6051 136.607 89.2223C136.614 88.8395 136.537 88.4597 136.382 88.1097L143.18 81.7518L138.477 80.6216L132.743 86.8324C132.172 87.1325 131.731 87.6315 131.504 88.2347C131.277 88.838 131.279 89.5037 131.509 90.1057C131.74 90.7077 132.184 91.2041 132.756 91.5009C133.328 91.7978 133.99 91.8743 134.615 91.7161Z" fill="#FFB6B6"/>
<path d="M138.125 86.5947L134.955 82.1247L146.863 69.8079L149.628 50.3936C149.765 49.434 150.111 48.5162 150.643 47.7054C151.174 46.8947 151.877 46.2108 152.703 45.7024C153.528 45.194 154.455 44.8735 155.418 44.7637C156.381 44.6539 157.357 44.7575 158.275 45.067C159.934 45.628 161.302 46.824 162.08 48.3926C162.857 49.9612 162.981 51.7742 162.424 53.4339L155.369 74.3648L138.125 86.5947Z" fill="#E4E4E4"/>
<path d="M160.485 169.317L156.965 169.317L155.291 155.742L160.486 155.742L160.485 169.317Z" fill="#FFB6B6"/>
<path d="M162.378 176H159.881L159.435 173.643L158.293 176H151.67C151.352 176 151.043 175.899 150.787 175.711C150.531 175.523 150.343 175.258 150.248 174.954C150.154 174.651 150.159 174.326 150.262 174.026C150.366 173.726 150.562 173.467 150.824 173.286L156.113 169.633V167.25L161.676 167.582L162.378 176Z" fill="#2F2E41"/>
<path d="M182.198 165.736L179.107 167.418L171.147 156.295L175.71 153.812L182.198 165.736Z" fill="#FFB6B6"/>
<path d="M187.056 170.701L184.862 171.895L183.344 170.037L183.468 172.653L177.65 175.819C177.371 175.971 177.051 176.03 176.736 175.987C176.422 175.944 176.129 175.801 175.901 175.58C175.673 175.359 175.522 175.071 175.47 174.758C175.417 174.445 175.466 174.123 175.609 173.84L178.509 168.103L177.37 166.009L182.416 163.642L187.056 170.701Z" fill="#2F2E41"/>
<path d="M161.968 164.484H154.695V138.584L150.192 121.698C146.961 109.623 146.102 97.0355 147.663 84.6331L147.67 84.5823L147.709 84.5495C147.824 84.4524 159.349 74.9233 166.639 82.2129C171.552 87.1265 166.935 104.795 166.677 105.764V136.222L161.968 164.484Z" fill="#2F2E41"/>
<path d="M145.448 89.3376L147.792 65.8953C147.488 65.256 143.104 61.2068 147.688 54.0875L152.639 42.4659L161.911 42.3218L161.95 42.3608C164.131 44.5374 165.74 47.2199 166.633 50.1692C167.526 53.1184 167.675 56.2428 167.068 59.2638L164.336 72.9248L166.703 82.3939L145.448 89.3376Z" fill="#E4E4E4"/>
<path d="M157.629 138.718L172.571 159.734L178.302 155.659L165.823 130.016L157.629 138.718Z" fill="#2F2E41"/>
<path d="M156.408 40.1038C161.137 40.1038 164.97 36.2706 164.97 31.5421C164.97 26.8137 161.137 22.9805 156.408 22.9805C151.68 22.9805 147.847 26.8137 147.847 31.5421C147.847 36.2706 151.68 40.1038 156.408 40.1038Z" fill="#FFB6B6"/>
<path opacity="0.1" d="M154.304 62.5093L156.648 76.5747L154.304 88.2959H149.615L151.746 76.5747L154.304 62.5093Z" fill="black"/>
<path d="M156.54 100.373C156.825 100.117 157.051 99.8016 157.2 99.4492C157.35 99.0969 157.421 98.7159 157.408 98.3333C157.395 97.9506 157.298 97.5754 157.124 97.2343C156.95 96.8931 156.704 96.5942 156.402 96.3587L159.405 87.5488L154.724 88.766L152.589 96.9454C152.227 97.4788 152.073 98.1265 152.157 98.7658C152.24 99.405 152.556 99.9914 153.043 100.414C153.53 100.836 154.155 101.065 154.799 101.058C155.444 101.05 156.063 100.806 156.54 100.373Z" fill="#FFB6B6"/>
<path d="M157.228 94.2009L152.326 91.75L157.033 75.2771L150.331 56.8475C150 55.9365 149.873 54.9638 149.96 53.9984C150.047 53.0329 150.346 52.0985 150.834 51.2614C151.323 50.4243 151.99 49.705 152.788 49.1547C153.586 48.6044 154.495 48.2365 155.451 48.0771C157.179 47.7911 158.949 48.2021 160.374 49.2197C161.798 50.2373 162.761 51.7786 163.051 53.5052L166.682 75.2926L157.228 94.2009Z" fill="#E4E4E4"/>
<path d="M224.689 175.689C224.689 175.73 224.681 175.77 224.665 175.808C224.65 175.845 224.627 175.879 224.598 175.908C224.569 175.937 224.535 175.96 224.498 175.975C224.46 175.991 224.42 175.999 224.379 175.999H55.7787C55.6965 175.999 55.6177 175.966 55.5595 175.908C55.5014 175.85 55.4688 175.771 55.4688 175.689C55.4688 175.607 55.5014 175.528 55.5595 175.47C55.6177 175.412 55.6965 175.379 55.7787 175.379H224.379C224.461 175.379 224.54 175.412 224.598 175.47C224.656 175.528 224.689 175.607 224.689 175.689Z" fill="#CACACA"/>
<path d="M189.706 31.1232C188.626 32.8768 186.338 33.6498 184.309 33.2987C182.279 32.9476 180.516 31.6378 179.213 30.0424C177.911 28.447 177.01 26.5691 176.123 24.7103C175.237 22.8513 174.34 20.972 173.044 19.3714C171.748 17.7707 169.994 16.4508 167.968 16.0832C166.865 15.8831 165.616 16.0152 164.811 16.7954C164.256 17.3802 163.953 18.1596 163.967 18.9655C163.617 18.842 163.241 18.8067 162.873 18.8627C162.506 18.9187 162.158 19.0642 161.86 19.2865C161.562 19.5087 161.323 19.8009 161.164 20.1373C161.006 20.4736 160.932 20.8438 160.951 21.2151C160.921 21.2146 160.891 21.2126 160.861 21.2126C157.085 19.0659 151.354 20.3129 151.354 22.6572C149.282 22.6572 146.75 24.7032 146.75 27.8102C151.034 27.8102 153.556 33.2996 151.055 37.2355C150.409 38.2395 149.697 39.1993 148.924 40.1087H154.281C154.731 39.4638 155.002 38.7116 155.068 37.9282C155.264 38.6399 155.382 39.3712 155.418 40.1087C155.418 40.1087 170.053 41.9944 166.276 27.4074C166.526 27.3949 166.769 27.3212 166.983 27.1928C167.554 26.8491 167.864 26.122 167.919 25.3843C168.06 25.422 168.201 25.4597 168.341 25.4973C169.348 25.7691 170.394 26.1213 171.085 26.9023C172.253 28.2225 172.007 30.2261 172.431 31.937C172.943 34.0002 174.473 35.669 176.173 36.9455C177.999 38.3169 180.132 39.3588 182.406 39.5751C184.679 39.7913 187.099 39.1 188.674 37.4464C190.249 35.7929 190.798 33.1292 189.706 31.1232Z" fill="#2F2E41"/>
</g>
<defs>
<clipPath id="clip0_201_44603">
<rect width="208.688" height="160" fill="white" transform="translate(16 16)"/>
</clipPath>
</defs>
</svg>
