<svg width="265" height="192" viewBox="0 0 265 192" fill="none" xmlns="http://www.w3.org/2000/svg">
<rect width="265" height="192" rx="16" fill="#C7DCDA" fill-opacity="0.75"/>
<g clip-path="url(#clip0_201_44679)">
<path d="M199.718 147H64.284C63.0257 147 62 148.345 62 149.998C62 151.655 63.0257 153 64.284 153H199.718C200.977 153 202 151.655 202 149.998C202 148.345 200.977 147 199.718 147Z" fill="#E6E6E6"/>
<path d="M174.566 162H89.4357C88.6447 162 88 163.345 88 164.998C88 166.655 88.6447 168 89.4357 168H174.566C175.357 168 176 166.655 176 164.998C176 163.345 175.357 162 174.566 162Z" fill="#E6E6E6"/>
<path d="M100.889 45.3501L113.089 40.2158L118.321 50.943L105.501 56.1758L100.889 45.3501Z" fill="#FFB6B6"/>
<path opacity="0.1" d="M100.889 45.3501L113.089 40.2158L118.321 50.943L105.501 56.1758L100.889 45.3501Z" fill="black"/>
<path d="M102.623 41.2624L114.658 55.1292C114.658 55.1292 106.286 81.5548 97.9136 83.9095C89.5411 86.2643 74.1044 97.7764 74.1044 97.7764L54.7432 85.2177L64.1622 71.3508C64.1622 71.3508 86.9248 40.2158 92.9424 40.2158C98.9601 40.2158 102.623 41.2624 102.623 41.2624Z" fill="#6C63FF"/>
<path d="M86.3611 131.658H58.3448L56.5735 129.291L49.3418 119.623L47.6778 117.399C47.6778 117.399 41.3984 105.887 42.7066 95.4214C44.0148 84.9558 57.6201 82.6011 57.6201 82.6011H58.18L74.8359 97.2371L73.8417 110.858L79.1163 119.623L86.3611 131.658Z" fill="#2F2E41"/>
<path d="M64.0833 131.658H56.5742V120.539L64.0833 131.658Z" fill="#2F2E41"/>
<path d="M226.042 114.778L225.108 119.623L222.79 131.659H176.221C176.584 128.961 177.082 125.078 177.613 120.887C177.665 120.468 177.72 120.047 177.772 119.623C179.104 109.087 180.561 97.1641 180.561 97.1641L186.684 97.9071L198.562 99.3462L203.402 99.9322L216.364 101.505C222.826 102.287 227.272 108.383 226.042 114.778Z" fill="#F2F2F2"/>
<path d="M184.807 50.583L195.792 66.1176L176.631 66.6898L174.574 52.0909L184.807 50.583Z" fill="#A0616A"/>
<path opacity="0.1" d="M184.807 50.583L195.792 66.1176L176.631 66.6898L174.574 52.0909L184.807 50.583Z" fill="black"/>
<path d="M130.636 82.7698C129.226 78.7039 125.986 76.1354 123.398 77.0328C120.811 77.9302 119.857 81.9532 121.267 86.0203C121.808 87.6527 122.732 89.1318 123.962 90.3337L130.152 107.486L138.139 104.41L131.189 87.8274C131.411 86.1215 131.221 84.3872 130.636 82.7698Z" fill="#A0616A"/>
<path d="M204.99 74.8539L204.975 90.6857L203.502 96.5333L200.472 108.561L198.267 119.623L196.624 127.865L196.038 130.808C195.596 131.104 195.156 131.386 194.716 131.658H156.446C154.272 130.353 153.056 129.338 153.056 129.338C153.056 129.338 153.657 128.772 154.346 127.865C155.507 126.331 156.912 123.82 156.051 121.42C155.871 120.918 155.824 120.306 155.879 119.623C156.229 115.118 160.955 107.499 160.955 107.499L159.976 96.1906L159.547 91.2352L162.572 67.0727L172.433 61.3402L174.136 61.1755L190.941 60.2676L197.887 60.6679L198.203 60.7542L204.99 74.8539Z" fill="#CCCCCC"/>
<path d="M205.737 131.659H197.365L196.996 127.865L196.988 127.789L199.359 127.627L205.526 127.206L205.633 129.477L205.717 131.219L205.737 131.659Z" fill="#FFB6B6"/>
<path d="M207.799 78.6818L211.316 99.3172L208.446 119.623L207.999 122.784L207.209 128.364L206.965 130.081L206.973 130.266L207.033 131.658H197.091L196.725 127.865L196.693 127.524L195.945 119.754L195.932 119.623L194.344 103.145L197.457 91.2352L197.688 90.3587V90.3561L199.042 69.9639L197.993 60.6967L197.983 60.6104C198.003 60.6234 198.022 60.6365 198.043 60.6496C198.098 60.6836 198.153 60.7176 198.205 60.7543C204.317 64.6318 207.959 71.4344 207.799 78.6818Z" fill="#CCCCCC"/>
<path d="M166.135 71.0267L162.312 67.0723C162.312 67.0723 154.127 70.762 153.719 72.8091C153.311 74.8561 138.86 104.922 138.86 104.922L132.573 88.1302L124.39 93.594C124.39 93.594 130.956 119.664 137.097 120.888C143.238 122.112 163.821 90.0316 163.821 90.0316L166.135 71.0267Z" fill="#CCCCCC"/>
<path d="M243.309 119H21.6879C18.551 119 16 122.591 16 127.002C16 131.413 18.551 135 21.6879 135H243.309C246.446 135 249 131.413 249 127.002C249 122.591 246.446 119 243.309 119Z" fill="#E6E6E6"/>
<path d="M203.248 96.1463L202.669 123.159C202.613 125.774 200.477 127.864 197.862 127.864H148.171C145.617 127.864 143.509 125.868 143.37 123.318L141.893 96.3058C141.742 93.5511 143.936 91.2349 146.694 91.2349H198.441C201.137 91.2349 203.306 93.451 203.248 96.1463Z" fill="#3F3D56"/>
<path d="M123.03 51.8706C129.596 51.8706 134.919 46.5479 134.919 39.9819C134.919 33.416 129.596 28.0933 123.03 28.0933C116.464 28.0933 111.142 33.416 111.142 39.9819C111.142 46.5479 116.464 51.8706 123.03 51.8706Z" fill="#FFB6B6"/>
<path d="M103.146 71.0887L104.454 85.2172L113.35 121.062L105.664 123.755L92.6801 84.6939L90.8867 68.9956L103.146 71.0887Z" fill="#FFB6B6"/>
<path d="M99.6075 96.1463L99.0286 123.159C98.9726 125.774 96.8368 127.864 94.2213 127.864H44.5304C41.9768 127.864 39.8686 125.868 39.7292 123.318L38.2524 96.3058C38.1018 93.5511 40.2949 91.2349 43.0537 91.2349H94.8001C97.4961 91.2349 99.6652 93.451 99.6075 96.1463Z" fill="#3F3D56"/>
<path d="M114.766 128.047C119.951 128.047 124.155 126.188 124.155 123.895C124.155 121.601 119.951 119.742 114.766 119.742C109.581 119.742 105.377 121.601 105.377 123.895C105.377 126.188 109.581 128.047 114.766 128.047Z" fill="#FFB6B6"/>
<path d="M84.7002 73.2491L90.0638 44.6635C90.0638 44.6635 104.977 42.5704 105.5 47.5415C106.024 52.5127 105.127 76.8073 105.127 76.8073L84.7002 73.2491Z" fill="#6C63FF"/>
<path d="M118.231 41.8509C118.231 41.8509 125.585 39.2262 128.687 37.8139C131.789 36.4017 137.952 46.252 138.09 41.0497C138.227 35.8475 136.097 33.6659 136.097 33.6659C136.097 33.6659 135.565 22.2852 124.099 23.708C124.099 23.708 126.621 18.0141 118.343 17.1337C110.065 16.2532 97.1853 36.2444 98.3387 39.232C99.4921 42.2196 100.875 44.6896 97.6024 47.8839C94.33 51.0783 88.2024 69.1066 92.8645 73.9579C97.5267 78.8091 97.8326 80.9143 94.6383 83.9324C91.444 86.9505 83.8935 93.513 92.0573 94.6523C100.221 95.7915 91.3104 94.9406 97.3967 89.5871C103.483 84.2336 112.364 84.4522 109.048 75.863C105.732 67.2737 111.493 54.9653 110.772 53.098C110.051 51.2308 112.387 39.3737 112.387 39.3737C112.387 39.3737 117.824 38.575 118.231 41.8509Z" fill="#2F2E41"/>
<path d="M178.934 56.2056C186.081 56.2056 191.876 50.4115 191.876 43.264C191.876 36.1165 186.081 30.3223 178.934 30.3223C171.786 30.3223 165.992 36.1165 165.992 43.264C165.992 50.4115 171.786 56.2056 178.934 56.2056Z" fill="#A0616A"/>
<path d="M179.967 25.8648C179.592 26.0834 179.091 25.7527 178.971 25.336C178.851 24.9194 178.991 24.477 179.129 24.0662L179.828 21.998C180.323 20.5312 180.848 19.0131 181.921 17.8967C183.54 16.2116 186.112 15.783 188.428 16.0935C191.403 16.4923 194.337 18.1028 195.72 20.7659C197.103 23.429 196.514 27.145 194.015 28.8065C197.577 32.8884 198.818 37.4375 198.622 42.851C198.426 48.2645 192.527 53.2467 188.679 57.0603C187.82 56.5395 187.039 54.0988 187.512 53.2121C187.984 52.3255 187.307 51.2983 187.892 50.4816C188.477 49.6649 188.967 50.9653 188.375 50.1532C188.002 49.6408 189.459 48.4619 188.904 48.1552C186.22 46.6718 185.328 43.3267 183.642 40.765C181.609 37.6753 178.13 35.5829 174.447 35.2357C172.419 35.0445 170.276 35.3908 168.614 36.5685C166.951 37.7461 165.875 39.8505 166.26 41.8512C165.262 40.8373 164.765 39.3515 164.952 37.9409C165.14 36.5303 166.007 35.2258 167.236 34.508C166.489 32.0374 167.129 29.1955 168.863 27.2837C170.597 25.3719 177.631 25.6975 180.163 26.2007L179.967 25.8648Z" fill="#2F2E41"/>
<path d="M180.36 35.3105C183.713 35.6725 186.134 38.5769 188.178 41.2591C189.357 42.805 190.591 44.5123 190.561 46.4559C190.531 48.4209 189.218 50.1063 188.59 51.9685C187.563 55.0123 188.564 58.6338 191.007 60.7194C188.593 61.1775 185.983 59.3675 185.566 56.946C185.081 54.1271 187.218 51.4064 186.965 48.5573C186.742 46.0472 184.764 44.1154 183.082 42.2385C181.401 40.3617 179.821 37.8713 180.595 35.473L180.36 35.3105Z" fill="#2F2E41"/>
</g>
<defs>
<clipPath id="clip0_201_44679">
<rect width="233" height="152" fill="white" transform="translate(16 16)"/>
</clipPath>
</defs>
</svg>
