<svg width="480" height="389" viewBox="0 0 480 389" fill="none" xmlns="http://www.w3.org/2000/svg">
<g clip-path="url(#clip0_188_29570)">
<path d="M477.151 20.9409H2.85007C2.1457 20.9401 1.4704 20.66 0.972341 20.1619C0.474278 19.6638 0.194128 18.9886 0.193359 18.2842V2.65671C0.194128 1.95234 0.474278 1.27704 0.972341 0.778981C1.4704 0.280918 2.1457 0.000768848 2.85007 0H477.151C477.855 0.000768848 478.531 0.280918 479.029 0.778981C479.527 1.27704 479.807 1.95234 479.808 2.65671V18.2842C479.807 18.9886 479.527 19.6638 479.029 20.1619C478.531 20.66 477.855 20.9401 477.151 20.9409Z" fill="#E4E4E4"/>
<path d="M15.6117 13.4798C17.6949 13.4798 19.3836 11.791 19.3836 9.7079C19.3836 7.62476 17.6949 5.93604 15.6117 5.93604C13.5286 5.93604 11.8398 7.62476 11.8398 9.7079C11.8398 11.791 13.5286 13.4798 15.6117 13.4798Z" fill="white"/>
<path d="M29.9281 13.4798C32.0113 13.4798 33.7 11.791 33.7 9.7079C33.7 7.62476 32.0113 5.93604 29.9281 5.93604C27.845 5.93604 26.1562 7.62476 26.1562 9.7079C26.1562 11.791 27.845 13.4798 29.9281 13.4798Z" fill="white"/>
<path d="M44.2445 13.4798C46.3277 13.4798 48.0164 11.791 48.0164 9.7079C48.0164 7.62476 46.3277 5.93604 44.2445 5.93604C42.1614 5.93604 40.4727 7.62476 40.4727 9.7079C40.4727 11.791 42.1614 13.4798 44.2445 13.4798Z" fill="white"/>
<path d="M473.56 388.972H262.609C260.901 388.97 259.264 388.291 258.057 387.083C256.849 385.876 256.17 384.239 256.168 382.531V233.412C256.17 231.704 256.849 230.067 258.057 228.859C259.264 227.652 260.901 226.973 262.609 226.971H473.56C475.268 226.973 476.905 227.652 478.113 228.859C479.32 230.067 479.999 231.704 480.001 233.412V382.531C479.999 384.239 479.32 385.876 478.113 387.083C476.905 388.291 475.268 388.97 473.56 388.972Z" fill="#E6E6E6"/>
<path d="M464.779 235.751H271.395C269.687 235.754 268.049 236.433 266.841 237.641C265.633 238.849 264.953 240.487 264.951 242.195V373.746C264.953 375.454 265.633 377.092 266.841 378.3C268.049 379.508 269.687 380.187 271.395 380.189H464.779C466.487 380.187 468.124 379.507 469.331 378.299C470.539 377.091 471.217 375.453 471.218 373.746V242.195C471.217 240.487 470.539 238.85 469.331 237.642C468.124 236.434 466.487 235.754 464.779 235.751Z" fill="white"/>
<path d="M385.707 298.289C388.917 284.311 380.186 270.377 366.208 267.168C352.229 263.959 338.295 272.689 335.086 286.668C331.877 300.647 340.607 314.58 354.586 317.789C368.565 320.999 382.498 312.268 385.707 298.289Z" fill="#9E616A"/>
<path d="M435.086 355.736C434.131 351.223 431.97 347.054 428.833 343.673C425.695 340.292 421.699 337.825 417.271 336.536L417.252 336.525C416.406 336.109 415.511 335.802 414.589 335.612L383.38 329.226L377.127 322.517L350.521 324.215L347.744 331.933L317.182 345.516L317.689 345.16C316.379 345.685 315.106 346.296 313.877 346.987L313.722 347.056C312.841 347.452 312.022 347.974 311.293 348.606C303.521 354 298.385 362.658 298.196 372.312L297.389 380.189H440.276L435.086 355.736Z" fill="#C7DCDA" fill-opacity="0.75"/>
<path d="M388.817 278.56C386.691 271.919 380.471 266.312 373.5 266.49C374.043 264.834 373.116 262.977 371.728 261.922C370.339 260.868 368.584 260.446 366.877 260.091C363.35 259.356 359.673 258.794 356.166 259.623C352.659 260.451 349.336 262.967 348.546 266.483C345.352 263.489 339.445 264.317 337.198 268.074C336.041 270.008 335.877 272.606 337.127 274.48C338.369 276.343 340.722 277.181 342.958 277.287C345.194 277.392 347.408 276.89 349.634 276.657C354.952 276.098 360.569 277.17 364.869 280.35C369.168 283.529 371.915 288.982 371.15 294.274C372.869 293.175 375.344 293.938 376.545 295.587C377.745 297.236 377.84 299.489 377.282 301.451C376.725 303.413 375.593 305.153 374.477 306.86C372.422 310.004 370.367 313.147 368.313 316.291L369.154 316.851C372.254 318.158 375.607 315.714 377.864 313.219C381.669 309.009 384.735 304.186 386.93 298.953C389.626 292.523 390.943 285.2 388.817 278.56Z" fill="#2F2E41"/>
<path d="M276.792 273.5H8.20088C6.02663 273.497 3.94213 272.633 2.4047 271.095C0.867266 269.558 0.00246107 267.473 0 265.299V75.4348C0.00245327 73.2605 0.867256 71.176 2.40469 69.6386C3.94212 68.1011 6.02662 67.2363 8.20088 67.2339H276.792C278.967 67.2363 281.051 68.1012 282.588 69.6386C284.126 71.176 284.991 73.2605 284.993 75.4348V265.299C284.991 267.473 284.126 269.558 282.588 271.095C281.051 272.633 278.967 273.497 276.792 273.5Z" fill="#E6E6E6"/>
<path d="M265.61 78.4141H19.3862C17.2111 78.4169 15.1259 79.2822 13.5878 80.8202C12.0498 82.3583 11.1844 84.4435 11.1816 86.6186V254.113C11.1844 256.289 12.0497 258.374 13.5878 259.912C15.1258 261.45 17.2111 262.315 19.3862 262.318H265.61C267.785 262.315 269.869 261.449 271.406 259.911C272.943 258.373 273.807 256.288 273.809 254.113V86.6186C273.807 84.4441 272.943 82.359 271.406 80.8208C269.869 79.2827 267.785 78.4171 265.61 78.4141Z" fill="white"/>
<path d="M177.928 157.018L177.474 157.837C181.516 147.875 177.84 135.599 170.629 128.088C163.419 120.576 153.394 117.142 143.523 115.78C136.196 114.768 128.59 114.798 121.623 117.482C111.533 121.368 103.824 130.366 97.3881 139.726C94.4441 144.008 91.5496 148.888 91.8428 154.239C92.1151 159.205 95.0627 163.419 97.4765 167.632C99.8907 171.845 101.906 177.072 100.174 181.671C99.1416 184.411 96.9597 186.384 95.1893 188.626C93.4189 190.867 91.9625 193.897 92.8177 196.71C93.5096 198.985 95.5909 200.481 97.7314 200.98C99.8716 201.479 102.092 201.153 104.26 200.825L160.523 192.325C164.346 191.747 167.973 190.254 171.094 187.971C174.215 185.689 176.738 182.686 178.447 179.218C180.157 175.75 181.003 171.92 180.912 168.054C180.822 164.189 179.798 160.403 177.928 157.018Z" fill="#2F2E41"/>
<path d="M136.078 191.933C151.271 191.933 163.587 179.617 163.587 164.425C163.587 149.232 151.271 136.917 136.078 136.917C120.886 136.917 108.57 149.232 108.57 164.425C108.57 179.617 120.886 191.933 136.078 191.933Z" fill="#FFB9B9"/>
<path d="M204.689 226.697C202.909 222.796 200.101 219.453 196.566 217.025C193.031 214.598 188.903 213.178 184.623 212.917L176.956 212.453L176.975 212.534L157.486 200.81C157.965 201.359 125.785 202.508 125.785 202.508L113.846 212.809L108.838 213.112C104.558 213.373 100.43 214.793 96.8951 217.22C93.3604 219.648 90.5526 222.991 88.7724 226.892L72.5117 262.513H104.921L105.673 259.277C106.491 260.273 107.284 261.287 108.053 262.318H220.949L204.689 226.697Z" fill="#C7DCDA" fill-opacity="0.75"/>
<path d="M162.168 138.894C161.458 135.138 157.626 133.42 154.344 132.587C144.822 130.158 134.918 129.614 125.188 130.986C118.095 131.997 110.833 134.228 105.686 139.765C101.672 144.083 99.2436 150.269 99.0545 156.656C98.9445 160.378 99.6101 164.251 101.462 167.386C103.314 170.521 106.471 172.795 109.73 172.715L110.06 173.863C123.871 171.939 136.7 163.345 144.78 150.607C143.263 156.022 140.246 160.897 136.075 164.669C145.4 160.938 153.505 154.691 159.488 146.625C161.122 144.456 162.708 141.752 162.168 138.894Z" fill="#2F2E41"/>
<path d="M463.123 7.11185H446.637C446.476 7.11235 446.317 7.08112 446.169 7.01998C446.02 6.95883 445.885 6.86896 445.771 6.75551C445.657 6.64206 445.567 6.50726 445.505 6.35885C445.444 6.21044 445.412 6.05134 445.412 5.89065C445.412 5.72996 445.444 5.57084 445.505 5.42243C445.567 5.27402 445.657 5.13923 445.771 5.02578C445.885 4.91233 446.02 4.82246 446.169 4.76131C446.317 4.70016 446.476 4.66894 446.637 4.66944H463.123C463.447 4.67044 463.756 4.79955 463.984 5.02846C464.213 5.25737 464.341 5.56742 464.341 5.89065C464.341 6.21387 464.213 6.52391 463.984 6.75282C463.756 6.98173 463.447 7.11084 463.123 7.11185Z" fill="white"/>
<path d="M463.123 11.6919H446.637C446.476 11.6924 446.317 11.6612 446.169 11.6001C446.02 11.5389 445.885 11.449 445.771 11.3356C445.657 11.2221 445.567 11.0873 445.505 10.9389C445.444 10.7905 445.412 10.6314 445.412 10.4707C445.412 10.31 445.444 10.1509 445.505 10.0025C445.567 9.8541 445.657 9.71931 445.771 9.60586C445.885 9.49241 446.02 9.40253 446.169 9.34139C446.317 9.28024 446.476 9.24902 446.637 9.24952H463.123C463.447 9.25052 463.756 9.37963 463.984 9.60854C464.213 9.83745 464.341 10.1475 464.341 10.4707C464.341 10.794 464.213 11.104 463.984 11.3329C463.756 11.5618 463.447 11.6909 463.123 11.6919Z" fill="white"/>
<path d="M463.123 16.271H446.637C446.476 16.2715 446.317 16.2403 446.169 16.1792C446.02 16.118 445.885 16.0281 445.771 15.9147C445.657 15.8012 445.567 15.6664 445.505 15.518C445.444 15.3696 445.412 15.2105 445.412 15.0498C445.412 14.8891 445.444 14.73 445.505 14.5816C445.567 14.4332 445.657 14.2984 445.771 14.185C445.885 14.0715 446.02 13.9816 446.169 13.9205C446.317 13.8593 446.476 13.8281 446.637 13.8286H463.123C463.447 13.8296 463.756 13.9587 463.984 14.1876C464.213 14.4166 464.341 14.7266 464.341 15.0498C464.341 15.373 464.213 15.6831 463.984 15.912C463.756 16.1409 463.447 16.27 463.123 16.271Z" fill="white"/>
</g>
<defs>
<clipPath id="clip0_188_29570">
<rect width="480" height="388.971" fill="white"/>
</clipPath>
</defs>
</svg>
