<svg width="16" height="17" viewBox="0 0 16 17" fill="none" xmlns="http://www.w3.org/2000/svg">
<g clip-path="url(#clip0_720_12533)">
<path d="M12.5705 11.0498L12.4276 11.0309V11.0119L12.2465 11.0214C12.1132 11.0309 11.9891 11.0309 11.9034 11.0214C11.7605 11.0023 11.6651 11.0119 11.5413 10.9546C11.4079 10.8973 11.2838 10.8594 11.1505 10.7831C11.1123 10.764 11.0648 10.7926 11.0266 10.7544C10.9598 10.6876 10.9408 10.6497 10.836 10.6497C10.8265 10.6401 10.7883 10.6115 10.7692 10.6115C10.7406 10.5829 10.7026 10.5352 10.6549 10.5447C10.569 10.5256 10.5215 10.4972 10.4643 10.4209C10.4643 10.4209 10.4547 10.4113 10.4357 10.4209L10.3405 10.335C10.226 10.2971 10.1689 10.2016 10.0544 10.1921C9.97829 10.2016 9.89241 10.1446 9.85424 10.0778L9.7972 10.0396L9.66361 9.95397L9.54932 9.9158L9.46366 9.85854L9.34915 9.81083C9.22532 9.78242 9.15852 9.74425 8.97743 9.71563C8.83452 9.69654 8.71069 9.687 8.53914 9.71563L8.65343 9.55363L8.77726 9.30574C8.80589 9.27711 9.11103 8.67682 9.22532 8.42894C9.27303 8.31465 9.37777 8.08585 9.45411 7.87614C10.512 7.21859 10.9885 6.56104 11.2077 6.11299C11.2838 5.96053 11.3316 5.74127 11.3411 5.59836C11.3697 5.36956 11.3029 5.09327 10.9312 5.0551C10.5406 5.00739 10.2164 5.23618 9.98783 5.59836C9.7972 5.90327 9.53023 6.58945 9.34915 7.04705C9.26349 7.27585 9.15852 7.53305 9.04423 7.79048C8.84406 7.90477 8.7584 7.93339 8.50097 8.00951C8.40577 8.03814 8.39623 8.03814 8.21514 8.08585C8.1388 8.10494 8.10063 8.10494 8.0436 8.11448C7.96726 8.11448 7.91954 8.12402 7.85297 8.11448L7.72891 8.08585C7.72891 8.08585 7.67188 8.12402 7.69097 8.22877C7.73846 8.25739 7.73846 8.31465 7.77663 8.38123C7.8148 8.40985 7.8148 8.43848 7.87183 8.43848C8.01497 8.43848 8.16743 8.4194 8.3008 8.39077L8.43417 8.36236C8.55823 8.33374 8.72023 8.27648 8.86314 8.20968L8.74886 8.45757L8.44372 9.10557C8.35806 9.27711 8.29126 9.40117 8.21514 9.53454C8.16743 9.60134 8.09109 9.66791 8.03405 9.69654L7.91 9.76334C7.77663 9.82992 7.73846 9.88717 7.62417 9.99192L7.47171 10.1921C7.44308 10.2589 7.39537 10.3636 7.37628 10.4304C7.3572 10.5256 7.34766 10.5924 7.34766 10.6688C7.34766 10.6972 7.3572 10.7449 7.36674 10.7831L7.43354 10.9832C7.45262 11.0214 7.50034 11.0593 7.52874 11.0975C7.54783 11.1357 7.57646 11.1452 7.60508 11.1357C7.64325 11.1357 7.68142 11.1739 7.71937 11.1261C7.70029 10.926 7.748 10.8308 7.82434 10.7258C7.83388 10.6876 7.86251 10.6497 7.88137 10.6211C7.91 10.5733 7.95771 10.5352 7.99588 10.4781L8.02451 10.3541C8.03405 10.3445 8.06246 10.3257 8.09109 10.3161L8.11971 10.2493C8.14834 10.2207 8.19605 10.2207 8.21514 10.1921C8.234 10.1539 8.25309 10.1064 8.29126 10.0873C8.4628 9.98237 8.6248 9.97283 8.76772 9.97283C8.89177 9.97283 8.96789 9.98237 9.12989 10.0205L9.31098 10.0683C9.48252 10.1351 9.92103 10.3923 10.083 10.4781C10.3023 10.6115 10.512 10.7449 10.7217 10.8499C10.8742 10.9355 11.0076 11.0309 11.1696 11.088C11.1982 11.0784 11.5413 11.2214 11.6746 11.2691L12.075 11.2881C12.1797 11.2977 12.2656 11.2977 12.3704 11.2404V11.2214H12.3513L12.4944 11.1261C12.5324 11.1071 12.5419 11.0784 12.5705 11.0498ZM9.94012 6.56104C9.94966 6.5515 9.96875 6.5515 9.96875 6.54196C9.97829 6.47516 10.0258 6.43699 10.0069 6.37996C10.0544 6.36087 10.0544 6.30362 10.0735 6.27499C10.083 6.26545 10.0449 6.26545 10.0544 6.2559C10.1212 6.20841 10.1021 6.11299 10.1689 6.05573C10.2069 5.96053 10.2546 5.86533 10.3118 5.76036C10.3118 5.75082 10.3023 5.76036 10.3118 5.75082C10.4357 5.50315 10.4738 5.49361 10.5215 5.43636L10.6263 5.35047C10.6645 5.32207 10.7406 5.29344 10.7978 5.2839C10.9503 5.27435 10.9885 5.40773 10.9885 5.49361C10.9885 5.68424 10.9217 5.90327 10.8265 6.0939C10.6072 6.50379 10.3595 6.83733 9.87332 7.20905L9.6352 7.39013C9.74949 7.1043 9.93058 6.63716 9.93058 6.59899C9.9592 6.59899 9.96875 6.5515 9.94012 6.56104Z" fill="#525259"/>
<path d="M8.65183 11.5181L8.50891 11.4992V11.4801L8.32783 11.4897C8.19445 11.4992 8.0704 11.4992 7.98474 11.4897C7.84182 11.4706 7.7464 11.4801 7.62257 11.4229C7.48919 11.3656 7.36514 11.3277 7.23177 11.2513C7.1936 11.2322 7.1461 11.2609 7.10793 11.2227C7.04114 11.1559 7.02205 11.1179 6.91731 11.1179C6.90776 11.1084 6.86959 11.0798 6.85051 11.0798C6.82188 11.0511 6.78393 11.0034 6.73622 11.013C6.65034 10.9939 6.60285 10.9655 6.54559 10.8891C6.54559 10.8891 6.53605 10.8796 6.51696 10.8891L6.42176 10.8033C6.30725 10.7653 6.25022 10.6699 6.13571 10.6604C6.05959 10.6699 5.9737 10.6129 5.93553 10.5461L5.8785 10.5079L5.74491 10.4222L5.63062 10.3841L5.54496 10.3268L5.43045 10.2791C5.30661 10.2507 5.23982 10.2125 5.05873 10.1839C4.91581 10.1648 4.79198 10.1553 4.62044 10.1839L4.73473 10.0219L4.85856 9.774C4.88719 9.74538 5.19233 9.14508 5.30661 8.8972C5.35433 8.78291 5.45907 8.55411 5.53541 8.3444C6.5933 7.68685 7.06976 7.0293 7.28902 6.58125C7.36514 6.42879 7.41285 6.20953 7.42239 6.06662C7.45102 5.83782 7.38422 5.56153 7.01251 5.52336C6.62193 5.47565 6.29771 5.70445 6.06913 6.06662C5.8785 6.37154 5.61153 7.05771 5.43045 7.51531C5.34479 7.74411 5.23982 8.00131 5.12553 8.25874C4.92536 8.37303 4.8397 8.40165 4.58227 8.47777C4.48707 8.5064 4.47752 8.5064 4.29644 8.55411C4.2201 8.5732 4.18193 8.5732 4.12489 8.58274C4.04855 8.58274 4.00084 8.59228 3.93427 8.58274L3.81021 8.55411C3.81021 8.55411 3.75318 8.59228 3.77226 8.69703C3.81976 8.72566 3.81976 8.78291 3.85793 8.84949C3.8961 8.87812 3.8961 8.90674 3.95313 8.90674C4.09627 8.90674 4.24873 8.88766 4.3821 8.85903L4.51547 8.83062C4.63953 8.802 4.80153 8.74474 4.94444 8.67794L4.83015 8.92583L4.52501 9.57383C4.43935 9.74538 4.37256 9.86943 4.29644 10.0028C4.24873 10.0696 4.17239 10.1362 4.11535 10.1648L3.9913 10.2316C3.85793 10.2982 3.81976 10.3554 3.70547 10.4602L3.55301 10.6604C3.52438 10.7271 3.47667 10.8319 3.45758 10.8987C3.4385 10.9939 3.42896 11.0607 3.42896 11.137C3.42896 11.1654 3.4385 11.2132 3.44804 11.2513L3.51484 11.4515C3.53392 11.4897 3.58164 11.5276 3.61004 11.5658C3.62913 11.604 3.65775 11.6135 3.68638 11.604C3.72455 11.604 3.76272 11.6421 3.80067 11.5944C3.78158 11.3942 3.8293 11.299 3.90564 11.1941C3.91518 11.1559 3.94381 11.1179 3.96267 11.0893C3.9913 11.0416 4.03901 11.0034 4.07718 10.9464L4.10581 10.8224C4.11535 10.8128 4.14376 10.7939 4.17238 10.7844L4.20101 10.7176C4.22964 10.689 4.27735 10.689 4.29644 10.6604C4.3153 10.6222 4.33439 10.5747 4.37256 10.5556C4.5441 10.4506 4.7061 10.4411 4.84902 10.4411C4.97307 10.4411 5.04919 10.4506 5.21119 10.4888L5.39228 10.5365C5.56382 10.6033 6.00233 10.8605 6.16433 10.9464C6.38359 11.0798 6.5933 11.2132 6.80302 11.3181C6.95548 11.4038 7.08885 11.4992 7.25085 11.5562C7.27948 11.5467 7.62257 11.6896 7.75594 11.7373L8.15628 11.7564C8.26103 11.766 8.34691 11.766 8.45166 11.7087V11.6896H8.43257L8.57571 11.5944C8.61366 11.5753 8.6232 11.5467 8.65183 11.5181ZM6.02142 7.0293C6.03096 7.01976 6.05004 7.01976 6.05004 7.01022C6.05959 6.94342 6.10708 6.90525 6.08821 6.84822C6.13571 6.82913 6.13571 6.77188 6.15479 6.74325C6.16433 6.73371 6.12616 6.73371 6.13571 6.72417C6.2025 6.67667 6.18342 6.58125 6.25022 6.52399C6.28816 6.42879 6.33588 6.33359 6.39313 6.22862C6.39313 6.21908 6.38359 6.22862 6.39313 6.21908C6.51696 5.97141 6.55513 5.96187 6.60285 5.90462L6.70759 5.81873C6.74576 5.79033 6.82188 5.7617 6.87914 5.75216C7.03159 5.74262 7.06976 5.87599 7.06976 5.96187C7.06976 6.1525 7.00297 6.37154 6.90776 6.56216C6.68851 6.97205 6.44084 7.30559 5.95462 7.67731L5.7165 7.8584C5.83079 7.57256 6.01187 7.10542 6.01187 7.06725C6.0405 7.06725 6.05004 7.01976 6.02142 7.0293Z" fill="#525259"/>
<path d="M7.12043 16.3681L7.48347 16.3972L7.47469 16.5078L6.97577 16.4674L7.05883 15.4277L7.19471 15.4391L7.12043 16.3681Z" fill="#525259" stroke="#525259" stroke-width="0.152381"/>
<path d="M8.62294 15.41L8.71036 16.4492L8.57537 16.4611L8.48795 15.4218L8.62294 15.41Z" fill="#525259" stroke="#525259" stroke-width="0.152381"/>
<path d="M9.92547 16.0902L10.2901 16.066L10.2979 16.1768L9.79781 16.2106L9.72845 15.1691L9.86389 15.1595L9.92547 16.0902Z" fill="#525259" stroke="#525259" stroke-width="0.152381"/>
<path d="M11.5555 14.7049L11.4412 15.4288L11.5668 15.8018L11.4373 15.8459L11.3117 15.4729L10.7802 14.9666L10.9244 14.9177L11.3366 15.3369L11.4114 14.7538L11.5555 14.7049Z" fill="#525259" stroke="#525259" stroke-width="0.152381"/>
<path d="M13.8353 13.8657L14.0763 13.5918L14.1596 13.6649L13.8283 14.0409L13.045 13.3516L13.1352 13.2495L13.8353 13.8657Z" fill="#525259" stroke="#525259" stroke-width="0.152381"/>
<path d="M13.9161 12.2545L14.761 12.8659L14.6817 12.9762L13.8368 12.3648L13.9161 12.2545Z" fill="#525259" stroke="#525259" stroke-width="0.152381"/>
<path d="M14.4009 11.2494L14.988 11.5502C15.071 11.5929 15.1429 11.6042 15.204 11.5843C15.265 11.5638 15.3136 11.5174 15.3506 11.4454C15.387 11.3751 15.3955 11.3096 15.3757 11.2489C15.3561 11.1877 15.3051 11.1357 15.2223 11.093L14.6352 10.7922L14.6971 10.6714L15.2831 10.9716C15.3603 11.0112 15.4177 11.06 15.4552 11.1186C15.4925 11.1767 15.5102 11.2387 15.5088 11.3046C15.5071 11.3701 15.4893 11.4358 15.4557 11.5014C15.4219 11.5673 15.3786 11.62 15.3262 11.6598C15.2736 11.6997 15.2129 11.7214 15.1441 11.7245C15.0754 11.7279 15.0023 11.7098 14.9249 11.6702L14.3389 11.3701L14.4009 11.2494Z" fill="#525259" stroke="#525259" stroke-width="0.152381"/>
<path d="M15.4024 9.88136C15.4447 9.88959 15.4856 9.86201 15.4934 9.81968C15.758 8.38459 15.6049 6.90309 15.0516 5.55161C14.4885 4.17607 13.5352 2.99529 12.3094 2.15472C11.0836 1.31414 9.63861 0.850484 8.15254 0.82085C6.66647 0.791217 5.20419 1.1969 3.94581 1.98794C2.68743 2.77897 1.6879 3.92081 1.07034 5.27281C0.452787 6.6248 0.244174 8.12791 0.470199 9.59698C0.696225 11.0661 1.34702 12.4369 2.34242 13.5408C3.32041 14.6253 4.58909 15.4055 5.99699 15.7893C6.03852 15.8006 6.08115 15.7756 6.09204 15.734V15.734C6.10293 15.6923 6.07797 15.6498 6.03645 15.6384C4.65796 15.2624 3.4158 14.4983 2.45818 13.4364C1.48314 12.3551 0.845663 11.0123 0.624262 9.57328C0.40286 8.13426 0.607205 6.66191 1.21213 5.33757C1.81705 4.01323 2.79613 2.89476 4.02877 2.11991C5.26141 1.34505 6.69377 0.947667 8.14943 0.976695C9.60509 1.00572 11.0205 1.45989 12.2212 2.28327C13.422 3.10665 14.3557 4.26327 14.9074 5.61067C15.4492 6.93401 15.5992 8.38461 15.3404 9.78985C15.3326 9.83218 15.3602 9.87312 15.4024 9.88136V9.88136Z" fill="#525259" stroke="#525259" stroke-width="0.380952"/>
</g>
<defs>
<clipPath id="clip0_720_12533">
<rect width="16" height="16.381" fill="white" transform="translate(0 0.476074)"/>
</clipPath>
</defs>
</svg>
