<svg width="56" height="58" viewBox="0 0 56 58" fill="none" xmlns="http://www.w3.org/2000/svg">
<path d="M43.9969 37.0078L43.4966 36.9418V36.875L42.8628 36.9084C42.396 36.9418 41.9619 36.9418 41.662 36.9084C41.1618 36.8416 40.8278 36.875 40.3944 36.6746C39.9276 36.4742 39.4934 36.3414 39.0266 36.0742C38.893 36.0074 38.7268 36.1076 38.5932 35.974C38.3594 35.7402 38.2926 35.6074 37.926 35.6074C37.8926 35.574 37.759 35.4738 37.6922 35.4738C37.592 35.3736 37.4592 35.2066 37.2922 35.24C36.9916 35.1732 36.8254 35.0738 36.625 34.8066C36.625 34.8066 36.5916 34.7732 36.5248 34.8066L36.1916 34.506C35.7908 34.3732 35.5912 34.0392 35.1904 34.0058C34.924 34.0392 34.6234 33.8396 34.4898 33.6058L34.2902 33.4722L33.8226 33.1724L33.4226 33.0388L33.1228 32.8384L32.722 32.6714C32.2886 32.572 32.0548 32.4384 31.421 32.3382C30.9208 32.2714 30.4874 32.238 29.887 32.3382L30.287 31.7712L30.7204 30.9036C30.8206 30.8034 31.8886 28.7024 32.2886 27.8348C32.4556 27.4348 32.8222 26.634 33.0894 25.9C36.792 23.5986 38.4596 21.2971 39.227 19.729C39.4934 19.1953 39.6604 18.428 39.6938 17.9277C39.794 17.1269 39.5602 16.1599 38.2592 16.0263C36.8922 15.8593 35.7574 16.6601 34.9574 17.9277C34.2902 18.995 33.3558 21.3966 32.722 22.9982C32.4222 23.799 32.0548 24.6992 31.6548 25.6002C30.9542 26.0002 30.6544 26.1004 29.7534 26.3668C29.4202 26.467 29.3868 26.467 28.753 26.634C28.4858 26.7008 28.3522 26.7008 28.1526 26.7342C27.8854 26.7342 27.7184 26.7676 27.4854 26.7342L27.0512 26.634C27.0512 26.634 26.8516 26.7676 26.9184 27.1342C27.0846 27.2344 27.0846 27.4348 27.2182 27.6678C27.3518 27.768 27.3518 27.8682 27.5514 27.8682C28.0524 27.8682 28.586 27.8014 29.0528 27.7012L29.5196 27.6018C29.9538 27.5016 30.5208 27.3012 31.021 27.0674L30.621 27.935L29.553 30.203C29.2532 30.8034 29.0194 31.2376 28.753 31.7044C28.586 31.9382 28.3188 32.1712 28.1192 32.2714L27.685 32.5052C27.2182 32.7382 27.0846 32.9386 26.6846 33.3052L26.151 34.0058C26.0508 34.2396 25.8838 34.6062 25.817 34.84C25.7502 35.1732 25.7168 35.407 25.7168 35.6742C25.7168 35.7736 25.7502 35.9406 25.7836 36.0742L26.0174 36.7748C26.0842 36.9084 26.2512 37.0412 26.3506 37.1748C26.4174 37.3084 26.5176 37.3418 26.6178 37.3084C26.7514 37.3084 26.885 37.442 27.0178 37.275C26.951 36.5744 27.118 36.2412 27.3852 35.8738C27.4186 35.7402 27.5188 35.6074 27.5848 35.5072C27.685 35.3402 27.852 35.2066 27.9856 35.007L28.0858 34.5728C28.1192 34.5394 28.2186 34.4734 28.3188 34.44L28.419 34.2062C28.5192 34.106 28.6862 34.106 28.753 34.0058C28.819 33.8722 28.8858 33.706 29.0194 33.6392C29.6198 33.2718 30.1868 33.2384 30.687 33.2384C31.1212 33.2384 31.3876 33.2718 31.9546 33.4054L32.5884 33.5724C33.1888 33.8062 34.7236 34.7064 35.2906 35.007C36.058 35.4738 36.792 35.9406 37.526 36.308C38.0596 36.6078 38.5264 36.9418 39.0934 37.1414C39.1936 37.108 40.3944 37.6082 40.8612 37.7752L42.2624 37.842C42.6291 37.8754 42.9296 37.8754 43.2963 37.675V37.6082H43.2295L43.7304 37.275C43.8633 37.2082 43.8967 37.108 43.9969 37.0078ZM34.7904 21.2971C34.8238 21.2637 34.8906 21.2637 34.8906 21.2303C34.924 20.9966 35.0902 20.863 35.0242 20.6633C35.1904 20.5965 35.1904 20.3962 35.2572 20.296C35.2906 20.2626 35.157 20.2626 35.1904 20.2292C35.4242 20.0629 35.3574 19.729 35.5912 19.5286C35.724 19.1953 35.891 18.8621 36.0914 18.4947C36.0914 18.4613 36.058 18.4947 36.0914 18.4613C36.5248 17.5945 36.6584 17.5611 36.8254 17.3607L37.192 17.0602C37.3256 16.9607 37.592 16.8605 37.7924 16.8271C38.326 16.7937 38.4596 17.2605 38.4596 17.5611C38.4596 18.2283 38.2258 18.995 37.8926 19.6622C37.1252 21.0968 36.2584 22.2642 34.5566 23.5652L33.7232 24.199C34.1232 23.1986 34.757 21.5636 34.757 21.43C34.8572 21.43 34.8906 21.2637 34.7904 21.2971Z" fill="#525259"/>
<path d="M30.2813 38.647L29.7811 38.581V38.5142L29.1473 38.5476C28.6805 38.581 28.2463 38.581 27.9465 38.5476C27.4463 38.4808 27.1123 38.5142 26.6789 38.3138C26.2121 38.1134 25.7779 37.9806 25.3111 37.7134C25.1775 37.6466 25.0112 37.7468 24.8776 37.6132C24.6439 37.3794 24.5771 37.2466 24.2104 37.2466C24.177 37.2132 24.0435 37.113 23.9767 37.113C23.8765 37.0128 23.7436 36.8458 23.5766 36.8792C23.2761 36.8124 23.1098 36.713 22.9094 36.4458C22.9094 36.4458 22.876 36.4124 22.8092 36.4458L22.476 36.1452C22.0753 36.0124 21.8756 35.6784 21.4748 35.645C21.2084 35.6784 20.9078 35.4787 20.7742 35.245L20.5746 35.1114L20.107 34.8115L19.707 34.678L19.4072 34.4776L19.0064 34.3106C18.573 34.2111 18.3392 34.0775 17.7054 33.9774C17.2052 33.9106 16.7718 33.8772 16.1714 33.9774L16.5714 33.4103L17.0048 32.5428C17.105 32.4426 18.173 30.3415 18.573 29.4739C18.74 29.0739 19.1066 28.2731 19.3738 27.5391C23.0764 25.2377 24.7441 22.9363 25.5115 21.3681C25.7779 20.8345 25.9449 20.0671 25.9783 19.5669C26.0785 18.7661 25.8447 17.7991 24.5437 17.6655C23.1766 17.4985 22.0419 18.2993 21.2418 19.5669C20.5746 20.6341 19.6402 23.0357 19.0064 24.6373C18.7066 25.4381 18.3392 26.3383 17.9392 27.2393C17.2386 27.6393 16.9388 27.7395 16.0378 28.0059C15.7046 28.1061 15.6712 28.1061 15.0374 28.2731C14.7702 28.3399 14.6366 28.3399 14.437 28.3733C14.1698 28.3733 14.0028 28.4067 13.7698 28.3733L13.3356 28.2731C13.3356 28.2731 13.136 28.4067 13.2028 28.7733C13.369 28.8735 13.369 29.0739 13.5026 29.3069C13.6362 29.4071 13.6362 29.5073 13.8358 29.5073C14.3368 29.5073 14.8704 29.4405 15.3372 29.3403L15.804 29.2409C16.2382 29.1407 16.8052 28.9403 17.3054 28.7065L16.9054 29.5741L15.8374 31.8422C15.5376 32.4426 15.3038 32.8767 15.0374 33.3436C14.8704 33.5773 14.6032 33.8104 14.4036 33.9106L13.9694 34.1443C13.5026 34.3774 13.369 34.5778 12.969 34.9444L12.4354 35.645C12.3352 35.8788 12.1682 36.2454 12.1014 36.4792C12.0346 36.8124 12.0012 37.0462 12.0012 37.3134C12.0012 37.4128 12.0346 37.5798 12.068 37.7134L12.3018 38.414C12.3686 38.5476 12.5356 38.6804 12.635 38.814C12.7018 38.9476 12.802 38.981 12.9022 38.9476C13.0358 38.9476 13.1694 39.0812 13.3022 38.9142C13.2354 38.2136 13.4024 37.8804 13.6696 37.513C13.703 37.3794 13.8032 37.2466 13.8692 37.1464C13.9694 36.9794 14.1364 36.8458 14.27 36.6462L14.3702 36.212C14.4036 36.1786 14.503 36.1126 14.6032 36.0792L14.7034 35.8454C14.8036 35.7452 14.9706 35.7452 15.0374 35.645C15.1034 35.5114 15.1702 35.3452 15.3038 35.2784C15.9042 34.911 16.4712 34.8776 16.9714 34.8776C17.4056 34.8776 17.672 34.911 18.239 35.0446L18.8728 35.2116C19.4732 35.4453 21.008 36.3456 21.575 36.6462C22.3424 37.113 23.0764 37.5798 23.8104 37.9472C24.344 38.247 24.8109 38.581 25.3779 38.7806C25.4781 38.7472 26.6789 39.2474 27.1457 39.4144L28.5469 39.4812C28.9135 39.5146 29.2141 39.5146 29.5807 39.3142V39.2474H29.5139L30.0149 38.9142C30.1477 38.8474 30.1811 38.7472 30.2813 38.647ZM21.0748 22.9363C21.1082 22.9029 21.175 22.9029 21.175 22.8695C21.2084 22.6357 21.3747 22.5021 21.3086 22.3025C21.4748 22.2357 21.4748 22.0353 21.5416 21.9351C21.575 21.9017 21.4414 21.9017 21.4748 21.8683C21.7086 21.7021 21.6418 21.3681 21.8756 21.1677C22.0085 20.8345 22.1754 20.5013 22.3758 20.1339C22.3758 20.1005 22.3424 20.1339 22.3758 20.1005C22.8092 19.2337 22.9428 19.2003 23.1098 18.9999L23.4764 18.6993C23.61 18.5999 23.8765 18.4997 24.0769 18.4663C24.6105 18.4329 24.7441 18.8997 24.7441 19.2003C24.7441 19.8675 24.5103 20.6341 24.177 21.3013C23.4097 22.7359 22.5428 23.9033 20.841 25.2043L20.0076 25.8381C20.4076 24.8377 21.0414 23.2027 21.0414 23.0691C21.1416 23.0691 21.175 22.9029 21.0748 22.9363Z" fill="#525259"/>
<path d="M24.9217 55.6221L26.1924 55.7239L26.1617 56.1112L24.4154 55.9695L24.7061 52.3308L25.1817 52.3707L24.9217 55.6221Z" fill="#525259" stroke="#525259" stroke-width="0.533333"/>
<path d="M30.1805 52.2694L30.4865 55.9067L30.014 55.9482L29.7081 52.3109L30.1805 52.2694Z" fill="#525259" stroke="#525259" stroke-width="0.533333"/>
<path d="M34.7393 54.6491L36.0154 54.5644L36.0426 54.9519L34.2925 55.0703L34.0497 51.4252L34.5237 51.3915L34.7393 54.6491Z" fill="#525259" stroke="#525259" stroke-width="0.533333"/>
<path d="M40.4447 49.8015L40.0446 52.3352L40.4843 53.6408L40.0309 53.7952L39.5912 52.4896L37.7312 50.7177L38.2357 50.5465L39.6786 52.0135L39.9402 49.9727L40.4447 49.8015Z" fill="#525259" stroke="#525259" stroke-width="0.533333"/>
<path d="M48.4236 46.8636L49.2674 45.9049L49.559 46.1608L48.3994 47.4767L45.6577 45.064L45.9734 44.7068L48.4236 46.8636Z" fill="#525259" stroke="#525259" stroke-width="0.533333"/>
<path d="M48.7065 41.2244L51.6638 43.3643L51.3863 43.7504L48.429 41.6105L48.7065 41.2244Z" fill="#525259" stroke="#525259" stroke-width="0.533333"/>
<path d="M50.4032 37.7058L52.4584 38.7588C52.7489 38.908 53.0003 38.9479 53.2141 38.8779C53.4276 38.8063 53.598 38.6439 53.7274 38.392C53.8548 38.1459 53.8846 37.9165 53.815 37.7042C53.7467 37.4899 53.5681 37.3079 53.2784 37.1585L51.2233 36.1055L51.44 35.6831L53.491 36.7336C53.7612 36.8723 53.9624 37.0431 54.0933 37.2481C54.2238 37.4514 54.2858 37.6683 54.281 37.8991C54.275 38.1284 54.2128 38.3584 54.0952 38.5879C53.9769 38.8184 53.8255 39.0031 53.6421 39.1425C53.4578 39.2821 53.2454 39.3578 53.0047 39.3688C52.7642 39.3807 52.5085 39.3173 52.2375 39.1789L50.1865 38.1283L50.4032 37.7058Z" fill="#525259" stroke="#525259" stroke-width="0.533333"/>
<path d="M53.9085 32.9187C54.0564 32.9476 54.1998 32.851 54.2271 32.7029C55.1531 27.68 54.6174 22.4948 52.6808 17.7646C50.7097 12.9502 47.3735 8.8175 43.083 5.87549C38.7925 2.93348 33.7352 1.31068 28.534 1.20696C23.3328 1.10324 18.2148 2.52314 13.8105 5.29177C9.40611 8.06039 5.90777 12.0568 3.74632 16.7888C1.58488 21.5208 0.85473 26.7817 1.64582 31.9234C2.43691 37.0652 4.71468 41.8633 8.19858 45.7267C11.6215 49.5225 16.0619 52.2532 20.9896 53.5964C21.135 53.636 21.2841 53.5486 21.3223 53.4029C21.3604 53.2571 21.273 53.1082 21.1277 53.0685C16.303 51.7524 11.9554 49.0781 8.60373 45.3613C5.19111 41.577 2.95994 36.877 2.18504 31.8405C1.41013 26.8039 2.12534 21.6507 4.24257 17.0155C6.35979 12.3803 9.78656 8.46564 14.1008 5.75365C18.415 3.04167 23.4283 1.65082 28.5231 1.75241C33.618 1.85401 38.5718 3.44362 42.7745 6.32543C46.9772 9.20725 50.2452 13.2554 52.1759 17.9713C54.0722 22.603 54.5972 27.6801 53.6916 32.5985C53.6643 32.7466 53.7607 32.8899 53.9085 32.9187Z" fill="#525259" stroke="#525259" stroke-width="1.33333"/>
</svg>
