<svg width="529" height="366" viewBox="0 0 529 366" fill="none" xmlns="http://www.w3.org/2000/svg">
<g filter="url(#filter0_d_177_13646)">
<g clip-path="url(#clip0_177_13646)">
<rect x="18" y="18.4932" width="464" height="299.935" rx="21.6" fill="#F0F1F7"/>
<rect x="18" y="18.4932" width="464" height="45.6481" fill="#6667AB"/>
<g filter="url(#filter1_d_177_13646)">
<rect x="56.667" y="46.9565" width="386.667" height="279.259" rx="5.37037" fill="white" shape-rendering="crispEdges"/>
<rect x="56.8013" y="47.0908" width="386.398" height="278.991" rx="5.23611" stroke="#E3E5EA" stroke-width="0.268519" shape-rendering="crispEdges"/>
<path d="M240.565 60.1157V64.6973H239.7V60.1157H240.565ZM242.797 64.6973H241.809L241.816 64.0176H242.797C243.064 64.0176 243.287 63.9588 243.468 63.8414C243.648 63.7218 243.784 63.5508 243.877 63.3285C243.969 63.104 244.015 62.8355 244.015 62.5229V62.2869C244.015 62.0456 243.989 61.8327 243.936 61.6481C243.884 61.4635 243.806 61.3083 243.704 61.1824C243.603 61.0565 243.478 60.9611 243.329 60.8961C243.18 60.831 243.009 60.7985 242.816 60.7985H241.79V60.1157H242.816C243.123 60.1157 243.402 60.1671 243.653 60.2699C243.907 60.3726 244.126 60.5205 244.311 60.7135C244.498 60.9044 244.64 61.1331 244.739 61.3995C244.84 61.6659 244.89 61.9638 244.89 62.2932V62.5229C244.89 62.8502 244.84 63.148 244.739 63.4166C244.64 63.683 244.498 63.9116 244.311 64.1025C244.126 64.2934 243.906 64.4403 243.65 64.5431C243.394 64.6459 243.11 64.6973 242.797 64.6973ZM242.294 60.1157V64.6973H241.429V60.1157H242.294ZM249.487 63.5078C249.487 63.4197 249.473 63.341 249.446 63.2718C249.421 63.2005 249.374 63.1365 249.305 63.0799C249.237 63.0211 249.142 62.9645 249.018 62.9099C248.897 62.8533 248.739 62.7946 248.546 62.7337C248.332 62.6666 248.133 62.5911 247.948 62.5072C247.764 62.4232 247.601 62.3257 247.461 62.2145C247.322 62.1033 247.214 61.9754 247.137 61.8306C247.059 61.6838 247.02 61.5139 247.02 61.3209C247.02 61.1321 247.06 60.96 247.14 60.8048C247.221 60.6496 247.337 60.5163 247.486 60.4052C247.635 60.2919 247.81 60.2048 248.011 60.144C248.215 60.0832 248.439 60.0527 248.685 60.0527C249.025 60.0527 249.318 60.1146 249.566 60.2384C249.815 60.3622 250.008 60.53 250.145 60.7419C250.281 60.9537 250.349 61.1918 250.349 61.4562H249.487C249.487 61.3135 249.457 61.1876 249.396 61.0786C249.337 60.9695 249.247 60.8835 249.125 60.8205C249.006 60.7576 248.855 60.7261 248.672 60.7261C248.496 60.7261 248.349 60.7524 248.232 60.8048C248.116 60.8572 248.029 60.9286 247.97 61.0188C247.914 61.109 247.885 61.2097 247.885 61.3209C247.885 61.4048 247.905 61.4803 247.945 61.5474C247.985 61.6124 248.045 61.6743 248.125 61.7331C248.204 61.7897 248.303 61.8432 248.42 61.8936C248.54 61.9418 248.678 61.9901 248.836 62.0383C249.087 62.1138 249.308 62.1977 249.497 62.29C249.687 62.3823 249.846 62.4872 249.972 62.6047C250.1 62.7222 250.195 62.8543 250.258 63.0012C250.323 63.148 250.356 63.3148 250.356 63.5015C250.356 63.6987 250.317 63.8749 250.239 64.0302C250.162 64.1854 250.05 64.3176 249.906 64.4266C249.761 64.5357 249.587 64.6186 249.383 64.6752C249.182 64.7319 248.956 64.7602 248.707 64.7602C248.484 64.7602 248.264 64.7308 248.046 64.6721C247.83 64.6113 247.634 64.5211 247.457 64.4015C247.281 64.2798 247.141 64.1267 247.036 63.9421C246.931 63.7554 246.878 63.5372 246.878 63.2875H247.747C247.747 63.4323 247.77 63.5561 247.816 63.6589C247.864 63.7595 247.932 63.8424 248.018 63.9074C248.106 63.9704 248.208 64.0165 248.326 64.0459C248.443 64.0753 248.57 64.09 248.707 64.09C248.883 64.09 249.028 64.0658 249.141 64.0176C249.256 63.9672 249.342 63.898 249.399 63.8099C249.458 63.7218 249.487 63.6211 249.487 63.5078ZM252.286 64.1057C252.403 64.1057 252.508 64.0826 252.601 64.0365C252.693 63.9903 252.766 63.9253 252.821 63.8414C252.878 63.7575 252.908 63.6599 252.912 63.5487H253.696C253.692 63.7795 253.626 63.9861 253.501 64.1686C253.375 64.3511 253.207 64.4959 252.997 64.6029C252.789 64.7078 252.557 64.7602 252.299 64.7602C252.036 64.7602 251.808 64.7161 251.613 64.628C251.418 64.5399 251.255 64.4172 251.125 64.2599C250.997 64.1025 250.9 63.92 250.835 63.7123C250.772 63.5047 250.741 63.2823 250.741 63.0452V62.9446C250.741 62.7075 250.772 62.4851 250.835 62.2775C250.9 62.0698 250.997 61.8873 251.125 61.7299C251.255 61.5726 251.418 61.4499 251.613 61.3618C251.808 61.2737 252.035 61.2296 252.295 61.2296C252.57 61.2296 252.811 61.2831 253.019 61.3901C253.229 61.4971 253.393 61.6481 253.51 61.8432C253.63 62.0383 253.692 62.268 253.696 62.5323H252.912C252.908 62.4107 252.881 62.3016 252.83 62.2051C252.78 62.1086 252.709 62.031 252.616 61.9722C252.524 61.9135 252.412 61.8841 252.28 61.8841C252.139 61.8841 252.022 61.9135 251.927 61.9722C251.835 62.031 251.763 62.1117 251.71 62.2145C251.66 62.3152 251.624 62.4285 251.603 62.5544C251.584 62.6781 251.575 62.8082 251.575 62.9446V63.0452C251.575 63.1837 251.584 63.3159 251.603 63.4417C251.624 63.5676 251.66 63.6809 251.71 63.7816C251.763 63.8802 251.835 63.9588 251.927 64.0176C252.022 64.0763 252.141 64.1057 252.286 64.1057ZM256.054 63.9735V62.4033C256.054 62.2879 256.034 62.1883 255.994 62.1044C255.954 62.0205 255.894 61.9554 255.812 61.9093C255.73 61.8631 255.626 61.8401 255.5 61.8401C255.389 61.8401 255.292 61.8589 255.208 61.8967C255.126 61.9345 255.063 61.988 255.019 62.0572C254.975 62.1243 254.953 62.2019 254.953 62.29H254.119C254.119 62.1495 254.152 62.0163 254.22 61.8904C254.287 61.7624 254.382 61.6492 254.506 61.5506C254.632 61.4499 254.782 61.3712 254.956 61.3146C255.132 61.2579 255.329 61.2296 255.547 61.2296C255.805 61.2296 256.035 61.2737 256.237 61.3618C256.44 61.4478 256.6 61.5778 256.715 61.752C256.832 61.9261 256.891 62.1453 256.891 62.4096V63.8949C256.891 64.0648 256.902 64.2106 256.923 64.3322C256.946 64.4518 256.979 64.5557 257.023 64.6438V64.6973H256.177C256.137 64.6113 256.107 64.5022 256.086 64.37C256.065 64.2357 256.054 64.1036 256.054 63.9735ZM256.171 62.6236L256.177 63.1176H255.651C255.521 63.1176 255.407 63.1313 255.308 63.1585C255.21 63.1837 255.129 63.2215 255.066 63.2718C255.003 63.3201 254.956 63.3788 254.924 63.448C254.893 63.5152 254.877 63.5917 254.877 63.6777C254.877 63.7616 254.896 63.8372 254.934 63.9043C254.974 63.9714 255.03 64.0249 255.104 64.0648C255.179 64.1025 255.267 64.1214 255.368 64.1214C255.515 64.1214 255.643 64.0921 255.752 64.0333C255.861 63.9725 255.946 63.8991 256.007 63.813C256.068 63.727 256.1 63.6452 256.104 63.5676L256.344 63.9263C256.314 64.0123 256.27 64.1036 256.211 64.2001C256.153 64.2966 256.077 64.3868 255.985 64.4707C255.893 64.5546 255.781 64.6238 255.651 64.6784C255.521 64.7329 255.37 64.7602 255.198 64.7602C254.978 64.7602 254.781 64.7161 254.607 64.628C254.432 64.5399 254.295 64.4193 254.194 64.2662C254.094 64.113 254.043 63.9389 254.043 63.7438C254.043 63.5634 254.077 63.404 254.144 63.2655C254.211 63.1271 254.311 63.0106 254.443 62.9162C254.575 62.8197 254.739 62.7474 254.934 62.6991C255.131 62.6488 255.357 62.6236 255.61 62.6236H256.171ZM258.384 62.0194V64.6973H257.553V61.2925H258.334L258.384 62.0194ZM258.252 62.8722H258.007C258.009 62.6246 258.042 62.4002 258.107 62.1988C258.172 61.9974 258.263 61.8243 258.381 61.6796C258.501 61.5348 258.642 61.4236 258.806 61.346C258.969 61.2684 259.152 61.2296 259.353 61.2296C259.517 61.2296 259.665 61.2527 259.797 61.2988C259.929 61.345 260.042 61.4184 260.137 61.5191C260.233 61.6198 260.307 61.752 260.357 61.9156C260.41 62.0771 260.436 62.2764 260.436 62.5135V64.6973H259.599V62.5072C259.599 62.3519 259.576 62.2292 259.53 62.139C259.485 62.0488 259.42 61.9848 259.334 61.947C259.251 61.9093 259.147 61.8904 259.023 61.8904C258.895 61.8904 258.783 61.9166 258.686 61.9691C258.592 62.0194 258.512 62.0897 258.447 62.1799C258.384 62.2701 258.336 62.374 258.302 62.4914C258.269 62.6089 258.252 62.7358 258.252 62.8722Z" fill="#49454F"/>
<path d="M74.3896 64.4101C74.5379 64.4101 74.6582 64.2899 74.6582 64.1416C74.6582 63.9933 74.5379 63.8731 74.3896 63.8731L74.3896 64.4101ZM68.2924 63.9517C68.1875 64.0566 68.1875 64.2266 68.2924 64.3315L70.0012 66.0403C70.1061 66.1452 70.2761 66.1452 70.381 66.0403C70.4858 65.9355 70.4858 65.7654 70.381 65.6606L68.862 64.1416L70.381 62.6226C70.4858 62.5178 70.4858 62.3478 70.381 62.2429C70.2761 62.138 70.1061 62.138 70.0012 62.2429L68.2924 63.9517ZM74.3896 63.8731L68.4822 63.8731L68.4822 64.4101L74.3896 64.4101L74.3896 63.8731Z" fill="#858FA3"/>
<path d="M187.704 95.3545H166.76C166.463 95.3545 166.223 95.5949 166.223 95.8915V116.836" stroke="#6667AB" stroke-width="2.14815" stroke-linecap="round"/>
<path d="M314.445 95.3545H335.39C335.686 95.3545 335.927 95.5949 335.927 95.8915V116.836" stroke="#6667AB" stroke-width="2.14815" stroke-linecap="round"/>
<path d="M187.704 189.873H166.76C166.463 189.873 166.223 189.633 166.223 189.336V168.392" stroke="#6667AB" stroke-width="2.14815" stroke-linecap="round"/>
<path d="M314.445 189.873H335.39C335.686 189.873 335.927 189.633 335.927 189.336V168.392" stroke="#6667AB" stroke-width="2.14815" stroke-linecap="round"/>
<rect x="196.297" y="217.531" width="107.407" height="10.7407" rx="2.14815" fill="white" fill-opacity="0.8"/>
<rect x="196.297" y="217.531" width="107.407" height="10.7407" rx="2.14815" stroke="#6667AB" stroke-width="0.537037" stroke-dasharray="1.07 1.07"/>
<path fill-rule="evenodd" clip-rule="evenodd" d="M236.196 224.782C236.196 224.93 236.316 225.05 236.464 225.05C236.612 225.05 236.733 224.93 236.733 224.782V223.17H238.344C238.492 223.17 238.613 223.05 238.613 222.902C238.613 222.753 238.492 222.633 238.344 222.633H236.733V221.021C236.733 220.873 236.612 220.753 236.464 220.753C236.316 220.753 236.196 220.873 236.196 221.021V222.633H234.584C234.436 222.633 234.315 222.753 234.315 222.902C234.315 223.05 234.436 223.17 234.584 223.17H236.196V224.782Z" fill="#6667AB"/>
<path d="M241.284 220.847H241.754L242.637 223.203L243.518 220.847H243.988L242.822 223.901H242.448L241.284 220.847ZM241.07 220.847H241.517L241.595 222.886V223.901H241.07V220.847ZM243.755 220.847H244.204V223.901H243.678V222.886L243.755 220.847ZM246.012 223.446V222.364C246.012 222.283 245.997 222.213 245.967 222.154C245.938 222.095 245.893 222.05 245.833 222.018C245.774 221.985 245.7 221.969 245.611 221.969C245.528 221.969 245.457 221.983 245.397 222.011C245.337 222.039 245.29 222.077 245.256 222.125C245.223 222.172 245.206 222.226 245.206 222.286H244.703C244.703 222.197 244.724 222.11 244.768 222.026C244.811 221.942 244.874 221.867 244.956 221.801C245.039 221.736 245.137 221.684 245.252 221.646C245.367 221.608 245.495 221.59 245.638 221.59C245.809 221.59 245.96 221.618 246.091 221.676C246.224 221.733 246.328 221.82 246.404 221.936C246.481 222.05 246.519 222.194 246.519 222.368V223.377C246.519 223.48 246.526 223.573 246.54 223.656C246.556 223.737 246.577 223.808 246.605 223.868V223.901H246.087C246.063 223.847 246.044 223.778 246.03 223.694C246.018 223.608 246.012 223.526 246.012 223.446ZM246.085 222.521L246.089 222.834H245.726C245.633 222.834 245.55 222.843 245.479 222.861C245.407 222.878 245.348 222.903 245.3 222.936C245.253 222.97 245.217 223.011 245.193 223.058C245.17 223.106 245.158 223.159 245.158 223.22C245.158 223.28 245.172 223.335 245.2 223.385C245.228 223.434 245.268 223.473 245.321 223.501C245.376 223.529 245.442 223.543 245.519 223.543C245.622 223.543 245.712 223.522 245.789 223.48C245.868 223.436 245.929 223.384 245.974 223.322C246.019 223.259 246.042 223.2 246.045 223.144L246.209 223.369C246.192 223.426 246.163 223.487 246.123 223.553C246.082 223.619 246.029 223.682 245.963 223.742C245.899 223.801 245.821 223.849 245.73 223.887C245.641 223.924 245.537 223.943 245.42 223.943C245.272 223.943 245.14 223.914 245.023 223.855C244.907 223.795 244.817 223.715 244.751 223.614C244.685 223.512 244.652 223.396 244.652 223.268C244.652 223.148 244.675 223.041 244.719 222.949C244.765 222.855 244.833 222.777 244.921 222.714C245.01 222.651 245.119 222.604 245.248 222.571C245.377 222.538 245.523 222.521 245.688 222.521H246.085ZM247.502 222.116V223.901H246.996V221.632H247.473L247.502 222.116ZM247.412 222.683L247.248 222.68C247.25 222.52 247.272 222.372 247.315 222.238C247.36 222.104 247.422 221.988 247.5 221.892C247.58 221.795 247.675 221.721 247.785 221.669C247.896 221.616 248.019 221.59 248.154 221.59C248.263 221.59 248.362 221.605 248.45 221.636C248.54 221.665 248.616 221.713 248.679 221.78C248.743 221.848 248.792 221.935 248.826 222.043C248.859 222.149 248.876 222.28 248.876 222.435V223.901H248.368V222.433C248.368 222.324 248.352 222.238 248.32 222.175C248.289 222.111 248.244 222.065 248.184 222.039C248.125 222.011 248.052 221.997 247.963 221.997C247.877 221.997 247.799 222.015 247.731 222.051C247.662 222.087 247.604 222.137 247.557 222.2C247.51 222.263 247.475 222.336 247.45 222.418C247.424 222.501 247.412 222.589 247.412 222.683ZM250.711 223.366V221.632H251.218V223.901H250.74L250.711 223.366ZM250.782 222.894L250.952 222.89C250.952 223.043 250.935 223.183 250.901 223.312C250.868 223.439 250.816 223.55 250.746 223.645C250.676 223.739 250.587 223.813 250.478 223.866C250.369 223.917 250.238 223.943 250.085 223.943C249.975 223.943 249.873 223.927 249.781 223.895C249.689 223.863 249.609 223.813 249.542 223.746C249.476 223.679 249.425 223.592 249.389 223.484C249.353 223.376 249.334 223.248 249.334 223.098V221.632H249.84V223.102C249.84 223.185 249.85 223.254 249.869 223.31C249.889 223.364 249.915 223.408 249.949 223.442C249.983 223.476 250.022 223.499 250.066 223.513C250.111 223.527 250.159 223.534 250.209 223.534C250.353 223.534 250.466 223.506 250.549 223.45C250.633 223.393 250.692 223.316 250.727 223.22C250.764 223.123 250.782 223.015 250.782 222.894ZM252.969 223.446V222.364C252.969 222.283 252.954 222.213 252.925 222.154C252.895 222.095 252.851 222.05 252.79 222.018C252.732 221.985 252.658 221.969 252.568 221.969C252.486 221.969 252.414 221.983 252.354 222.011C252.294 222.039 252.247 222.077 252.214 222.125C252.18 222.172 252.163 222.226 252.163 222.286H251.66C251.66 222.197 251.681 222.11 251.725 222.026C251.768 221.942 251.831 221.867 251.914 221.801C251.996 221.736 252.095 221.684 252.209 221.646C252.324 221.608 252.453 221.59 252.595 221.59C252.766 221.59 252.917 221.618 253.048 221.676C253.181 221.733 253.285 221.82 253.361 221.936C253.438 222.05 253.476 222.194 253.476 222.368V223.377C253.476 223.48 253.483 223.573 253.497 223.656C253.513 223.737 253.534 223.808 253.562 223.868V223.901H253.044C253.02 223.847 253.002 223.778 252.988 223.694C252.975 223.608 252.969 223.526 252.969 223.446ZM253.042 222.521L253.046 222.834H252.683C252.59 222.834 252.507 222.843 252.436 222.861C252.365 222.878 252.305 222.903 252.258 222.936C252.21 222.97 252.174 223.011 252.151 223.058C252.127 223.106 252.115 223.159 252.115 223.22C252.115 223.28 252.129 223.335 252.157 223.385C252.185 223.434 252.225 223.473 252.279 223.501C252.333 223.529 252.399 223.543 252.476 223.543C252.579 223.543 252.669 223.522 252.746 223.48C252.825 223.436 252.886 223.384 252.931 223.322C252.976 223.259 252.999 223.2 253.002 223.144L253.166 223.369C253.149 223.426 253.12 223.487 253.08 223.553C253.039 223.619 252.986 223.682 252.92 223.742C252.856 223.801 252.779 223.849 252.688 223.887C252.598 223.924 252.495 223.943 252.377 223.943C252.229 223.943 252.097 223.914 251.981 223.855C251.865 223.795 251.774 223.715 251.708 223.614C251.642 223.512 251.609 223.396 251.609 223.268C251.609 223.148 251.632 223.041 251.676 222.949C251.723 222.855 251.79 222.777 251.878 222.714C251.967 222.651 252.076 222.604 252.205 222.571C252.334 222.538 252.481 222.521 252.646 222.521H253.042ZM254.499 220.679V223.901H253.991V220.679H254.499ZM255.547 220.679V223.901H255.039V220.679H255.547ZM256.712 223.654L257.329 221.632H257.87L256.96 224.248C256.939 224.303 256.911 224.364 256.878 224.43C256.844 224.496 256.8 224.558 256.746 224.617C256.693 224.677 256.626 224.725 256.546 224.761C256.467 224.799 256.37 224.818 256.257 224.818C256.212 224.818 256.169 224.814 256.127 224.806C256.086 224.799 256.048 224.791 256.011 224.782L256.009 224.396C256.023 224.398 256.04 224.399 256.06 224.401C256.081 224.402 256.097 224.403 256.11 224.403C256.194 224.403 256.264 224.392 256.32 224.371C256.376 224.352 256.421 224.32 256.456 224.275C256.493 224.23 256.523 224.17 256.548 224.094L256.712 223.654ZM256.364 221.632L256.903 223.331L256.993 223.864L256.643 223.954L255.818 221.632H256.364ZM260.375 221.254L259.462 223.901H258.91L260.06 220.847H260.412L260.375 221.254ZM261.138 223.901L260.224 221.254L260.184 220.847H260.538L261.692 223.901H261.138ZM261.094 222.769V223.186H259.433V222.769H261.094ZM263.321 223.431V220.679H263.829V223.901H263.369L263.321 223.431ZM261.844 222.792V222.748C261.844 222.576 261.864 222.419 261.905 222.278C261.946 222.135 262.004 222.013 262.081 221.911C262.158 221.807 262.252 221.728 262.362 221.674C262.473 221.618 262.597 221.59 262.736 221.59C262.873 221.59 262.993 221.616 263.097 221.669C263.2 221.722 263.288 221.799 263.361 221.898C263.434 221.996 263.492 222.113 263.535 222.25C263.578 222.386 263.609 222.537 263.627 222.704V222.844C263.609 223.006 263.578 223.155 263.535 223.289C263.492 223.423 263.434 223.539 263.361 223.637C263.288 223.735 263.199 223.81 263.094 223.864C262.991 223.917 262.87 223.943 262.732 223.943C262.594 223.943 262.471 223.915 262.36 223.857C262.251 223.8 262.158 223.72 262.081 223.616C262.004 223.513 261.946 223.391 261.905 223.251C261.864 223.11 261.844 222.957 261.844 222.792ZM262.35 222.748V222.792C262.35 222.895 262.359 222.992 262.377 223.081C262.397 223.171 262.427 223.25 262.467 223.318C262.508 223.385 262.56 223.438 262.625 223.478C262.69 223.515 262.769 223.534 262.86 223.534C262.974 223.534 263.069 223.509 263.143 223.459C263.217 223.408 263.275 223.341 263.317 223.255C263.36 223.169 263.39 223.072 263.405 222.966V222.586C263.397 222.504 263.379 222.427 263.352 222.355C263.327 222.284 263.293 222.222 263.25 222.169C263.206 222.114 263.153 222.072 263.088 222.043C263.025 222.012 262.95 221.997 262.864 221.997C262.771 221.997 262.693 222.016 262.629 222.055C262.564 222.094 262.511 222.148 262.469 222.217C262.429 222.285 262.399 222.365 262.379 222.456C262.36 222.547 262.35 222.644 262.35 222.748ZM265.695 223.431V220.679H266.202V223.901H265.743L265.695 223.431ZM264.218 222.792V222.748C264.218 222.576 264.238 222.419 264.279 222.278C264.319 222.135 264.378 222.013 264.455 221.911C264.532 221.807 264.625 221.728 264.736 221.674C264.846 221.618 264.971 221.59 265.109 221.59C265.246 221.59 265.367 221.616 265.47 221.669C265.574 221.722 265.662 221.799 265.734 221.898C265.807 221.996 265.865 222.113 265.909 222.25C265.952 222.386 265.983 222.537 266.001 222.704V222.844C265.983 223.006 265.952 223.155 265.909 223.289C265.865 223.423 265.807 223.539 265.734 223.637C265.662 223.735 265.573 223.81 265.468 223.864C265.365 223.917 265.244 223.943 265.105 223.943C264.968 223.943 264.844 223.915 264.734 223.857C264.625 223.8 264.532 223.72 264.455 223.616C264.378 223.513 264.319 223.391 264.279 223.251C264.238 223.11 264.218 222.957 264.218 222.792ZM264.723 222.748V222.792C264.723 222.895 264.732 222.992 264.751 223.081C264.77 223.171 264.8 223.25 264.841 223.318C264.881 223.385 264.934 223.438 264.998 223.478C265.064 223.515 265.142 223.534 265.233 223.534C265.348 223.534 265.442 223.509 265.516 223.459C265.59 223.408 265.648 223.341 265.69 223.255C265.734 223.169 265.763 223.072 265.779 222.966V222.586C265.77 222.504 265.753 222.427 265.726 222.355C265.701 222.284 265.667 222.222 265.623 222.169C265.58 222.114 265.526 222.072 265.462 222.043C265.399 222.012 265.324 221.997 265.237 221.997C265.145 221.997 265.067 222.016 265.002 222.055C264.938 222.094 264.885 222.148 264.843 222.217C264.802 222.285 264.772 222.365 264.753 222.456C264.733 222.547 264.723 222.644 264.723 222.748Z" fill="#6667AB"/>
<rect x="180.722" y="110.596" width="138.556" height="63.3704" rx="1.61111" stroke="#E3E5EA" stroke-width="1.07407" stroke-dasharray="2.15 2.15"/>
<rect x="190.926" y="120.799" width="42.963" height="42.963" rx="2.14815" fill="white" fill-opacity="0.6"/>
<path d="M220.44 152.294L220.072 152.227C217.788 151.807 217.669 150.634 217.665 150.503C217.656 149.461 217.647 148.327 217.651 147.723C217.832 147.609 218.019 147.495 218.211 147.373L218.488 147.2C220.614 145.867 220.568 143.006 220.44 141.799L221.295 141.081C221.869 140.6 222.199 139.894 222.199 139.142L222.201 135.051V129.163C222.201 127.775 221.273 125.032 217.765 124.595C216.414 124.426 214.084 124.487 211.613 124.554C209.994 124.595 208.324 124.645 206.85 124.622C205.222 124.604 203.733 125.155 202.696 126.182C201.763 127.101 201.273 128.311 201.273 129.682C201.273 129.746 201.287 130.437 201.792 131.192C200.896 133.076 201.509 134.873 202.142 135.838C201.993 137.136 201.801 139.519 202.273 140.467C202.696 141.313 203.734 141.826 204.452 142.091V144.153C204.452 144.202 204.458 144.252 204.467 144.302C204.703 145.734 205.814 146.886 207.165 147.746C207.17 148.356 207.159 149.476 207.15 150.503C207.145 150.634 207.028 151.813 204.744 152.232L204.371 152.3C201.333 152.842 197.171 153.597 197.171 159.166C197.171 159.667 197.58 160.076 198.081 160.076C198.582 160.076 198.991 159.667 198.991 159.166C198.991 155.117 201.634 154.639 204.696 154.082L205.073 154.015C208.972 153.3 208.972 150.608 208.972 150.515C208.981 149.742 208.986 149.145 208.986 148.681C210.438 149.291 211.871 149.605 212.644 149.605C213.805 149.605 214.8 149.282 215.829 148.763C215.829 149.209 215.834 149.769 215.843 150.492C215.843 150.606 215.843 153.3 219.743 154.013L220.119 154.081C223.182 154.632 225.825 155.11 225.825 159.164C225.825 159.665 226.233 160.074 226.735 160.074C227.236 160.074 227.645 159.665 227.645 159.164C227.637 153.597 223.474 152.842 220.44 152.294ZM203.969 127.476C204.647 126.808 205.635 126.438 206.758 126.438H206.822C208.333 126.456 210.021 126.411 211.654 126.37C214.052 126.306 216.318 126.248 217.534 126.397C220.258 126.738 220.372 128.923 220.378 129.159V134.432L220.337 134.45C220.031 132.234 218.03 131.411 216.651 131.411H207.181C205.047 131.411 204.028 130.91 203.536 130.451C203.518 130.433 203.5 130.419 203.481 130.401C203.117 130.033 203.085 129.696 203.085 129.678C203.086 128.804 203.392 128.045 203.969 127.476ZM204.392 135.96H203.955C203.964 135.873 203.973 135.788 203.987 135.701C204.019 135.45 203.946 135.196 203.783 135.001C203.774 134.986 202.864 133.872 203.25 132.452C203.731 132.703 204.337 132.916 205.087 133.053C204.81 133.677 204.492 134.645 204.392 135.96ZM206.271 144.068V141.42C206.271 141.001 205.988 140.642 205.583 140.537C204.915 140.368 204.055 139.959 203.9 139.65C203.801 139.423 203.772 138.69 203.809 137.78H204.401C204.416 137.967 204.433 138.154 204.456 138.349C204.515 138.809 204.906 139.145 205.358 139.145C205.393 139.145 205.436 139.145 205.471 139.136C205.972 139.072 206.323 138.617 206.262 138.122C205.866 134.963 206.945 133.394 207.003 133.312C207.021 133.286 207.039 133.254 207.053 133.225C207.094 133.225 207.135 133.231 207.181 133.231H216.649C216.844 133.231 218.556 133.28 218.556 135.05V135.756V135.797V137.777C218.556 138.278 218.965 138.687 219.466 138.687C219.967 138.687 220.376 138.278 220.376 137.777V139.128C220.376 139.337 220.285 139.536 220.122 139.673L218.879 140.715C218.629 140.925 218.512 141.26 218.57 141.584C218.576 141.616 219.103 144.65 217.514 145.647L217.237 145.819C215.295 147.044 214.12 147.78 212.638 147.78C211.081 147.79 206.7 146.107 206.271 144.069L206.271 144.068Z" fill="#8F8CB8"/>
<path d="M246.744 127.799H245.756L245.762 127.12H246.744C247.01 127.12 247.234 127.061 247.414 126.943C247.595 126.824 247.731 126.653 247.823 126.431C247.915 126.206 247.962 125.938 247.962 125.625V125.389C247.962 125.148 247.935 124.935 247.883 124.75C247.831 124.566 247.753 124.41 247.65 124.284C247.549 124.159 247.425 124.063 247.276 123.998C247.127 123.933 246.956 123.901 246.763 123.901H245.737V123.218H246.763C247.069 123.218 247.348 123.269 247.6 123.372C247.854 123.475 248.073 123.623 248.257 123.816C248.444 124.006 248.587 124.235 248.685 124.502C248.786 124.768 248.836 125.066 248.836 125.395V125.625C248.836 125.952 248.786 126.25 248.685 126.519C248.587 126.785 248.444 127.014 248.257 127.205C248.073 127.395 247.853 127.542 247.597 127.645C247.341 127.748 247.056 127.799 246.744 127.799ZM246.24 123.218V127.799H245.375V123.218H246.24ZM249.733 124.133H251.221C251.446 124.133 251.648 124.158 251.829 124.206C252.011 124.252 252.165 124.322 252.291 124.417C252.419 124.509 252.517 124.624 252.584 124.763C252.651 124.899 252.685 125.057 252.685 125.238C252.685 125.443 252.649 125.618 252.578 125.76C252.506 125.903 252.407 126.02 252.279 126.113C252.151 126.203 252.001 126.277 251.829 126.336L251.558 126.49H250.271L250.265 125.833H251.231C251.367 125.833 251.481 125.812 251.574 125.77C251.666 125.728 251.735 125.668 251.781 125.59C251.828 125.513 251.851 125.421 251.851 125.317C251.851 125.207 251.827 125.114 251.778 125.037C251.732 124.957 251.662 124.896 251.568 124.854C251.475 124.812 251.36 124.791 251.221 124.791H250.57V127.799H249.733V124.133ZM251.933 127.799L251.039 126.179L251.92 126.172L252.829 127.762V127.799H251.933ZM254.459 124.133V127.799H253.625V124.133H254.459ZM256.97 126.833L257.857 124.133H258.735L257.373 127.799H256.762L256.97 126.833ZM256.01 124.133L256.882 126.824L257.102 127.799H256.485L255.129 124.133H256.01ZM262.001 127.145V127.799H259.899V127.145H262.001ZM260.179 124.133V127.799H259.345V124.133H260.179ZM261.731 125.578V126.232H259.899V125.578H261.731ZM262.001 124.133V124.791H259.899V124.133H262.001ZM262.715 124.133H264.204C264.428 124.133 264.631 124.158 264.811 124.206C264.993 124.252 265.148 124.322 265.274 124.417C265.401 124.509 265.499 124.624 265.566 124.763C265.633 124.899 265.667 125.057 265.667 125.238C265.667 125.443 265.631 125.618 265.56 125.76C265.489 125.903 265.389 126.02 265.261 126.113C265.133 126.203 264.983 126.277 264.811 126.336L264.54 126.49H263.253L263.247 125.833H264.213C264.349 125.833 264.464 125.812 264.556 125.77C264.648 125.728 264.718 125.668 264.764 125.59C264.81 125.513 264.833 125.421 264.833 125.317C264.833 125.207 264.809 125.114 264.761 125.037C264.714 124.957 264.644 124.896 264.55 124.854C264.457 124.812 264.342 124.791 264.204 124.791H263.552V127.799H262.715V124.133ZM264.915 127.799L264.021 126.179L264.902 126.172L265.812 127.762V127.799H264.915ZM267.353 122.966V123.429C267.353 123.561 267.328 123.699 267.278 123.844C267.229 123.987 267.162 124.123 267.076 124.253C266.992 124.381 266.897 124.491 266.79 124.583L266.387 124.341C266.471 124.213 266.539 124.077 266.592 123.932C266.646 123.785 266.674 123.618 266.674 123.432V122.966H267.353ZM270.298 126.83C270.298 126.765 270.286 126.706 270.261 126.654C270.237 126.601 270.199 126.554 270.144 126.512C270.09 126.47 270.014 126.431 269.918 126.393C269.823 126.355 269.705 126.319 269.562 126.286C269.338 126.231 269.141 126.171 268.974 126.106C268.806 126.041 268.665 125.965 268.552 125.877C268.441 125.789 268.357 125.685 268.3 125.565C268.246 125.443 268.218 125.302 268.218 125.14C268.218 124.985 268.252 124.844 268.319 124.716C268.388 124.585 268.485 124.473 268.609 124.379C268.734 124.284 268.882 124.212 269.052 124.162C269.224 124.109 269.412 124.083 269.615 124.083C269.911 124.083 270.17 124.13 270.393 124.225C270.617 124.319 270.791 124.451 270.915 124.621C271.039 124.789 271.101 124.988 271.101 125.219H270.267C270.267 125.123 270.242 125.035 270.191 124.958C270.143 124.878 270.071 124.814 269.974 124.766C269.878 124.718 269.758 124.694 269.615 124.694C269.479 124.694 269.366 124.715 269.276 124.756C269.188 124.796 269.121 124.849 269.077 124.914C269.035 124.977 269.014 125.044 269.014 125.115C269.014 125.174 269.027 125.227 269.052 125.276C269.079 125.322 269.121 125.365 269.178 125.405C269.237 125.442 269.313 125.479 269.408 125.515C269.502 125.548 269.617 125.583 269.751 125.619C269.973 125.669 270.168 125.729 270.336 125.798C270.506 125.865 270.647 125.946 270.758 126.04C270.871 126.135 270.956 126.245 271.013 126.371C271.069 126.497 271.098 126.642 271.098 126.808C271.098 126.972 271.064 127.119 270.997 127.249C270.93 127.377 270.832 127.486 270.704 127.576C270.578 127.664 270.427 127.732 270.251 127.78C270.077 127.827 269.882 127.85 269.666 127.85C269.473 127.85 269.283 127.827 269.096 127.78C268.91 127.734 268.741 127.663 268.59 127.566C268.439 127.468 268.318 127.343 268.228 127.192C268.138 127.041 268.092 126.861 268.092 126.651H268.929C268.929 126.756 268.946 126.846 268.98 126.921C269.015 126.997 269.066 127.059 269.131 127.107C269.198 127.153 269.28 127.188 269.376 127.211C269.473 127.232 269.582 127.242 269.704 127.242C269.846 127.242 269.962 127.222 270.05 127.183C270.138 127.143 270.201 127.091 270.239 127.028C270.278 126.965 270.298 126.899 270.298 126.83ZM276.796 127.12V127.799H274.492V127.12H276.796ZM274.754 123.218V127.799H273.888V123.218H274.754ZM278.429 124.133V127.799H277.595V124.133H278.429ZM281.707 126.563H282.544C282.525 126.819 282.451 127.043 282.321 127.236C282.191 127.429 282.009 127.58 281.776 127.689C281.546 127.796 281.27 127.85 280.949 127.85C280.693 127.85 280.464 127.809 280.263 127.727C280.062 127.645 279.889 127.528 279.747 127.375C279.606 127.219 279.498 127.033 279.423 126.814C279.349 126.596 279.313 126.35 279.313 126.075V125.861C279.313 125.586 279.351 125.34 279.429 125.121C279.507 124.901 279.617 124.715 279.759 124.561C279.902 124.406 280.073 124.288 280.272 124.206C280.474 124.122 280.699 124.08 280.949 124.08C281.28 124.08 281.559 124.137 281.786 124.25C282.015 124.363 282.192 124.519 282.318 124.719C282.446 124.916 282.522 125.14 282.547 125.392H281.714C281.703 125.266 281.672 125.154 281.619 125.055C281.567 124.957 281.486 124.879 281.377 124.823C281.27 124.766 281.127 124.738 280.949 124.738C280.817 124.738 280.7 124.762 280.6 124.81C280.499 124.856 280.415 124.926 280.348 125.021C280.281 125.113 280.23 125.23 280.197 125.37C280.163 125.509 280.146 125.671 280.146 125.858V126.075C280.146 126.26 280.161 126.422 280.191 126.563C280.222 126.701 280.27 126.818 280.335 126.912C280.4 127.006 280.483 127.078 280.584 127.126C280.687 127.174 280.808 127.198 280.949 127.198C281.115 127.198 281.251 127.175 281.358 127.129C281.465 127.083 281.547 127.013 281.603 126.918C281.662 126.822 281.697 126.703 281.707 126.563ZM285.977 127.145V127.799H283.875V127.145H285.977ZM284.155 124.133V127.799H283.321V124.133H284.155ZM285.706 125.578V126.232H283.875V125.578H285.706ZM285.977 124.133V124.791H283.875V124.133H285.977ZM289.913 124.133V127.799H289.079L287.528 125.367V127.799H286.694V124.133H287.528L289.079 126.566V124.133H289.913ZM292.915 126.83C292.915 126.765 292.902 126.706 292.877 126.654C292.854 126.601 292.815 126.554 292.761 126.512C292.706 126.47 292.631 126.431 292.534 126.393C292.44 126.355 292.321 126.319 292.179 126.286C291.954 126.231 291.758 126.171 291.59 126.106C291.422 126.041 291.282 125.965 291.169 125.877C291.057 125.789 290.974 125.685 290.917 125.565C290.862 125.443 290.835 125.302 290.835 125.14C290.835 124.985 290.869 124.844 290.936 124.716C291.005 124.585 291.101 124.473 291.225 124.379C291.351 124.284 291.499 124.212 291.669 124.162C291.841 124.109 292.029 124.083 292.232 124.083C292.528 124.083 292.787 124.13 293.009 124.225C293.234 124.319 293.408 124.451 293.532 124.621C293.656 124.789 293.717 124.988 293.717 125.219H292.884C292.884 125.123 292.858 125.035 292.808 124.958C292.76 124.878 292.687 124.814 292.591 124.766C292.494 124.718 292.375 124.694 292.232 124.694C292.096 124.694 291.983 124.715 291.892 124.756C291.804 124.796 291.738 124.849 291.694 124.914C291.652 124.977 291.631 125.044 291.631 125.115C291.631 125.174 291.644 125.227 291.669 125.276C291.696 125.322 291.738 125.365 291.795 125.405C291.854 125.442 291.93 125.479 292.025 125.515C292.119 125.548 292.233 125.583 292.368 125.619C292.59 125.669 292.785 125.729 292.953 125.798C293.123 125.865 293.263 125.946 293.374 126.04C293.488 126.135 293.573 126.245 293.629 126.371C293.686 126.497 293.714 126.642 293.714 126.808C293.714 126.972 293.681 127.119 293.614 127.249C293.546 127.377 293.449 127.486 293.321 127.576C293.195 127.664 293.044 127.732 292.868 127.78C292.694 127.827 292.499 127.85 292.283 127.85C292.09 127.85 291.9 127.827 291.713 127.78C291.526 127.734 291.357 127.663 291.206 127.566C291.055 127.468 290.935 127.343 290.844 127.192C290.754 127.041 290.709 126.861 290.709 126.651H291.546C291.546 126.756 291.563 126.846 291.597 126.921C291.632 126.997 291.683 127.059 291.748 127.107C291.815 127.153 291.897 127.188 291.993 127.211C292.09 127.232 292.199 127.242 292.32 127.242C292.463 127.242 292.578 127.222 292.666 127.183C292.755 127.143 292.817 127.091 292.855 127.028C292.895 126.965 292.915 126.899 292.915 126.83ZM297.204 127.145V127.799H295.102V127.145H297.204ZM295.382 124.133V127.799H294.548V124.133H295.382ZM296.933 125.578V126.232H295.102V125.578H296.933ZM297.204 124.133V124.791H295.102V124.133H297.204Z" fill="#858FA3"/>
<path d="M244.629 139.392H287.592" stroke="#E3E5EA" stroke-width="3.22222" stroke-linecap="round"/>
<path d="M244.629 147.984H309.073" stroke="#E3E5EA" stroke-width="3.22222" stroke-linecap="round"/>
<path d="M244.629 156.577H309.073" stroke="#E3E5EA" stroke-width="3.22222" stroke-linecap="round"/>
</g>
<rect x="403.861" y="29.4751" width="6.98148" height="6.98148" rx="3.49074" stroke="white" stroke-width="0.537037"/>
<path d="M407.958 32.9276C408.35 32.7128 408.618 32.2985 408.618 31.8152C408.618 31.117 408.05 30.5493 407.352 30.5493C406.654 30.5493 406.086 31.117 406.086 31.8152C406.086 32.2909 406.355 32.7128 406.746 32.9276C405.71 33.1961 404.936 34.1398 404.936 35.2676C404.936 35.3289 404.989 35.3826 405.051 35.3826C405.112 35.3826 405.166 35.3289 405.166 35.2676C405.166 34.0631 406.148 33.0811 407.352 33.0811C408.557 33.0811 409.539 34.0631 409.539 35.2676C409.539 35.3289 409.592 35.3826 409.654 35.3826C409.715 35.3826 409.769 35.3289 409.769 35.2676C409.769 34.1398 408.994 33.1961 407.958 32.9276ZM406.316 31.8152C406.316 31.2475 406.784 30.7795 407.352 30.7795C407.92 30.7795 408.388 31.2475 408.388 31.8152C408.388 32.3829 407.92 32.8509 407.352 32.8509C406.784 32.8509 406.316 32.3829 406.316 31.8152Z" fill="white" stroke="white" stroke-width="0.268519"/>
<path d="M416 30.4436V30.8338H415.656V34.2574H416V34.6497H415.15V30.4436H416ZM417.5 32.5855H416.722L416.717 32.2016H417.397C417.512 32.2016 417.609 32.1848 417.689 32.1512C417.77 32.1163 417.831 32.0666 417.873 32.0023C417.915 31.9365 417.936 31.8575 417.936 31.7652C417.936 31.6631 417.917 31.5799 417.877 31.5156C417.838 31.4513 417.778 31.4044 417.697 31.375C417.617 31.3457 417.515 31.331 417.391 31.331H416.881V33.9658H416.354V30.9114H417.391C417.559 30.9114 417.708 30.9275 417.84 30.9597C417.972 30.9918 418.085 31.0422 418.177 31.1107C418.271 31.1778 418.342 31.2632 418.389 31.3666C418.438 31.4701 418.463 31.5932 418.463 31.7359C418.463 31.8617 418.433 31.9771 418.372 32.082C418.312 32.1855 418.224 32.2701 418.106 32.3358C417.989 32.4016 417.842 32.4407 417.668 32.4533L417.5 32.5855ZM417.477 33.9658H416.556L416.793 33.5484H417.477C417.596 33.5484 417.695 33.5288 417.775 33.4896C417.854 33.4491 417.914 33.3938 417.953 33.3239C417.993 33.2526 418.014 33.1694 418.014 33.0743C418.014 32.975 417.996 32.8889 417.961 32.8162C417.926 32.7421 417.871 32.6855 417.796 32.6463C417.72 32.6057 417.621 32.5855 417.5 32.5855H416.908L416.912 32.2016H417.682L417.802 32.3463C417.97 32.3519 418.107 32.389 418.215 32.4575C418.324 32.526 418.405 32.6148 418.458 32.7239C418.512 32.833 418.538 32.9505 418.538 33.0764C418.538 33.2707 418.496 33.4337 418.41 33.5651C418.326 33.6966 418.205 33.7966 418.047 33.8651C417.889 33.9323 417.699 33.9658 417.477 33.9658ZM420.305 33.5106V32.4281C420.305 32.347 420.29 32.2771 420.261 32.2184C420.231 32.1596 420.187 32.1142 420.126 32.082C420.068 32.0498 419.994 32.0337 419.904 32.0337C419.822 32.0337 419.75 32.0477 419.69 32.0757C419.63 32.1037 419.583 32.1414 419.549 32.189C419.516 32.2365 419.499 32.2904 419.499 32.3505H418.996C418.996 32.261 419.017 32.1743 419.061 32.0904C419.104 32.0065 419.167 31.9317 419.25 31.8659C419.332 31.8002 419.431 31.7484 419.545 31.7107C419.66 31.6729 419.789 31.654 419.931 31.654C420.102 31.654 420.253 31.6827 420.384 31.7401C420.517 31.7974 420.621 31.8841 420.697 32.0002C420.774 32.1149 420.812 32.2589 420.812 32.4323V33.4414C420.812 33.5449 420.819 33.6379 420.833 33.7204C420.849 33.8015 420.87 33.8721 420.898 33.9323V33.9658H420.38C420.356 33.9113 420.338 33.8421 420.324 33.7581C420.311 33.6728 420.305 33.5903 420.305 33.5106ZM420.378 32.5855L420.382 32.898H420.019C419.926 32.898 419.843 32.9071 419.772 32.9253C419.701 32.9421 419.641 32.9673 419.594 33.0008C419.546 33.0344 419.51 33.075 419.487 33.1225C419.463 33.1701 419.451 33.2239 419.451 33.284C419.451 33.3442 419.465 33.3994 419.493 33.4498C419.521 33.4987 419.561 33.5372 419.615 33.5651C419.669 33.5931 419.735 33.6071 419.812 33.6071C419.915 33.6071 420.005 33.5861 420.082 33.5442C420.161 33.5008 420.222 33.4484 420.267 33.3868C420.312 33.3239 420.335 33.2645 420.338 33.2085L420.502 33.433C420.485 33.4903 420.456 33.5519 420.416 33.6176C420.375 33.6833 420.322 33.7463 420.256 33.8064C420.192 33.8651 420.114 33.9134 420.024 33.9511C419.934 33.9889 419.831 34.0078 419.713 34.0078C419.565 34.0078 419.433 33.9784 419.317 33.9197C419.201 33.8595 419.11 33.7791 419.044 33.6784C418.978 33.5763 418.945 33.4609 418.945 33.3323C418.945 33.212 418.968 33.1057 419.012 33.0134C419.059 32.9197 419.126 32.8414 419.214 32.7785C419.303 32.7155 419.412 32.668 419.541 32.6358C419.67 32.6022 419.817 32.5855 419.982 32.5855H420.378ZM421.849 32.1806V33.9658H421.343V31.696H421.819L421.849 32.1806ZM421.759 32.747L421.595 32.7449C421.596 32.5841 421.619 32.4365 421.662 32.3023C421.707 32.168 421.768 32.0526 421.847 31.9561C421.926 31.8596 422.022 31.7855 422.132 31.7338C422.243 31.6806 422.366 31.654 422.501 31.654C422.61 31.654 422.709 31.6694 422.797 31.7002C422.887 31.7296 422.963 31.7778 423.026 31.8449C423.09 31.9121 423.139 31.9995 423.173 32.1072C423.206 32.2135 423.223 32.3442 423.223 32.4995V33.9658H422.715V32.4974C422.715 32.3883 422.699 32.3023 422.667 32.2393C422.636 32.175 422.591 32.1295 422.531 32.103C422.472 32.075 422.398 32.061 422.31 32.061C422.224 32.061 422.146 32.0792 422.077 32.1156C422.009 32.1519 421.951 32.2016 421.903 32.2645C421.857 32.3274 421.822 32.4002 421.796 32.4827C421.771 32.5652 421.759 32.6533 421.759 32.747ZM424.255 30.7436V33.9658H423.747V30.7436H424.255ZM425.665 31.696L424.677 32.7911L424.136 33.3449L424.003 32.9169L424.412 32.4113L425.054 31.696H425.665ZM425.164 33.9658L424.427 32.9001L424.746 32.5456L425.749 33.9658H425.164ZM426.951 34.0078C426.783 34.0078 426.631 33.9805 426.496 33.926C426.362 33.87 426.247 33.7924 426.152 33.6931C426.058 33.5938 425.986 33.477 425.936 33.3428C425.885 33.2085 425.86 33.0638 425.86 32.9085V32.8246C425.86 32.647 425.886 32.4862 425.938 32.3421C425.989 32.1981 426.062 32.075 426.154 31.9729C426.246 31.8694 426.355 31.7904 426.481 31.7359C426.607 31.6813 426.743 31.654 426.89 31.654C427.052 31.654 427.194 31.6813 427.316 31.7359C427.438 31.7904 427.538 31.8673 427.618 31.9666C427.699 32.0645 427.759 32.1813 427.798 32.3169C427.839 32.4526 427.859 32.6022 427.859 32.7659V32.982H426.106V32.619H427.36V32.5792C427.357 32.4883 427.339 32.403 427.306 32.3232C427.273 32.2435 427.224 32.1792 427.157 32.1302C427.089 32.0813 427 32.0568 426.888 32.0568C426.804 32.0568 426.729 32.075 426.664 32.1114C426.599 32.1463 426.545 32.1974 426.502 32.2645C426.459 32.3316 426.425 32.4127 426.401 32.5078C426.379 32.6016 426.368 32.7071 426.368 32.8246V32.9085C426.368 33.0078 426.381 33.1001 426.408 33.1854C426.436 33.2694 426.476 33.3428 426.529 33.4057C426.582 33.4686 426.647 33.5183 426.722 33.5547C426.798 33.5896 426.884 33.6071 426.98 33.6071C427.102 33.6071 427.21 33.5826 427.306 33.5337C427.401 33.4847 427.483 33.4155 427.553 33.326L427.819 33.584C427.771 33.6553 427.707 33.7239 427.629 33.7896C427.55 33.8539 427.454 33.9064 427.341 33.9469C427.229 33.9875 427.099 34.0078 426.951 34.0078ZM428.768 32.1281V33.9658H428.262V31.696H428.745L428.768 32.1281ZM429.462 31.6813L429.458 32.1512C429.427 32.1456 429.394 32.1414 429.357 32.1386C429.322 32.1358 429.287 32.1344 429.252 32.1344C429.166 32.1344 429.089 32.147 429.024 32.1722C428.958 32.196 428.903 32.2309 428.858 32.2771C428.815 32.3218 428.781 32.3764 428.757 32.4407C428.734 32.5051 428.72 32.5771 428.715 32.6568L428.6 32.6652C428.6 32.5225 428.614 32.3904 428.642 32.2687C428.67 32.147 428.712 32.04 428.768 31.9477C428.825 31.8554 428.896 31.7834 428.982 31.7317C429.069 31.6799 429.169 31.654 429.282 31.654C429.313 31.654 429.345 31.6568 429.38 31.6624C429.417 31.668 429.444 31.6743 429.462 31.6813ZM433.335 30.9114V33.9658H432.808L431.439 31.7778V33.9658H430.912V30.9114H431.439L432.813 33.1036V30.9114H433.335ZM435.198 33.5106V32.4281C435.198 32.347 435.183 32.2771 435.154 32.2184C435.125 32.1596 435.08 32.1142 435.02 32.082C434.961 32.0498 434.887 32.0337 434.797 32.0337C434.715 32.0337 434.644 32.0477 434.583 32.0757C434.523 32.1037 434.476 32.1414 434.443 32.189C434.409 32.2365 434.392 32.2904 434.392 32.3505H433.889C433.889 32.261 433.911 32.1743 433.954 32.0904C433.997 32.0065 434.06 31.9317 434.143 31.8659C434.225 31.8002 434.324 31.7484 434.439 31.7107C434.553 31.6729 434.682 31.654 434.825 31.654C434.995 31.654 435.146 31.6827 435.278 31.7401C435.411 31.7974 435.515 31.8841 435.59 32.0002C435.667 32.1149 435.706 32.2589 435.706 32.4323V33.4414C435.706 33.5449 435.713 33.6379 435.727 33.7204C435.742 33.8015 435.764 33.8721 435.792 33.9323V33.9658H435.274C435.25 33.9113 435.231 33.8421 435.217 33.7581C435.204 33.6728 435.198 33.5903 435.198 33.5106ZM435.271 32.5855L435.276 32.898H434.913C434.819 32.898 434.737 32.9071 434.665 32.9253C434.594 32.9421 434.534 32.9673 434.487 33.0008C434.439 33.0344 434.404 33.075 434.38 33.1225C434.356 33.1701 434.344 33.2239 434.344 33.284C434.344 33.3442 434.358 33.3994 434.386 33.4498C434.414 33.4987 434.455 33.5372 434.508 33.5651C434.562 33.5931 434.628 33.6071 434.705 33.6071C434.809 33.6071 434.899 33.5861 434.976 33.5442C435.054 33.5008 435.116 33.4484 435.16 33.3868C435.205 33.3239 435.229 33.2645 435.232 33.2085L435.395 33.433C435.378 33.4903 435.35 33.5519 435.309 33.6176C435.269 33.6833 435.216 33.7463 435.15 33.8064C435.085 33.8651 435.008 33.9134 434.917 33.9511C434.827 33.9889 434.724 34.0078 434.606 34.0078C434.458 34.0078 434.326 33.9784 434.21 33.9197C434.094 33.8595 434.003 33.7791 433.937 33.6784C433.872 33.5763 433.839 33.4609 433.839 33.3323C433.839 33.212 433.861 33.1057 433.906 33.0134C433.952 32.9197 434.019 32.8414 434.107 32.7785C434.197 32.7155 434.306 32.668 434.434 32.6358C434.563 32.6022 434.71 32.5855 434.875 32.5855H435.271ZM436.746 32.1575V33.9658H436.241V31.696H436.717L436.746 32.1575ZM436.665 32.747L436.493 32.7449C436.493 32.5883 436.512 32.4435 436.551 32.3107C436.59 32.1778 436.648 32.0624 436.723 31.9645C436.799 31.8652 436.893 31.789 437.004 31.7359C437.118 31.6813 437.248 31.654 437.397 31.654C437.5 31.654 437.595 31.6694 437.68 31.7002C437.767 31.7296 437.841 31.7764 437.904 31.8407C437.969 31.9051 438.018 31.9876 438.051 32.0883C438.086 32.189 438.104 32.3107 438.104 32.4533V33.9658H437.598V32.4974C437.598 32.3869 437.581 32.3002 437.548 32.2372C437.516 32.1743 437.469 32.1295 437.407 32.103C437.347 32.075 437.275 32.061 437.191 32.061C437.096 32.061 437.015 32.0792 436.948 32.1156C436.882 32.1519 436.828 32.2016 436.786 32.2645C436.744 32.3274 436.714 32.4002 436.694 32.4827C436.674 32.5652 436.665 32.6533 436.665 32.747ZM438.072 32.6127L437.835 32.6652C437.835 32.5281 437.854 32.3988 437.892 32.2771C437.931 32.154 437.988 32.0463 438.062 31.954C438.137 31.8603 438.23 31.7869 438.341 31.7338C438.451 31.6806 438.578 31.654 438.72 31.654C438.836 31.654 438.94 31.6701 439.031 31.7023C439.123 31.7331 439.202 31.782 439.266 31.8491C439.33 31.9163 439.379 32.0037 439.413 32.1114C439.446 32.2177 439.463 32.3463 439.463 32.4974V33.9658H438.955V32.4953C438.955 32.3806 438.939 32.2918 438.905 32.2288C438.873 32.1659 438.827 32.1226 438.767 32.0988C438.706 32.0736 438.634 32.061 438.55 32.061C438.472 32.061 438.403 32.0757 438.343 32.1051C438.284 32.133 438.234 32.1729 438.194 32.2246C438.153 32.275 438.123 32.333 438.102 32.3988C438.082 32.4645 438.072 32.5358 438.072 32.6127ZM440.99 34.0078C440.823 34.0078 440.671 33.9805 440.535 33.926C440.401 33.87 440.286 33.7924 440.191 33.6931C440.097 33.5938 440.025 33.477 439.975 33.3428C439.925 33.2085 439.9 33.0638 439.9 32.9085V32.8246C439.9 32.647 439.925 32.4862 439.977 32.3421C440.029 32.1981 440.101 32.075 440.193 31.9729C440.286 31.8694 440.395 31.7904 440.52 31.7359C440.646 31.6813 440.783 31.654 440.93 31.654C441.092 31.654 441.234 31.6813 441.355 31.7359C441.477 31.7904 441.578 31.8673 441.657 31.9666C441.739 32.0645 441.799 32.1813 441.838 32.3169C441.878 32.4526 441.899 32.6022 441.899 32.7659V32.982H440.145V32.619H441.399V32.5792C441.397 32.4883 441.378 32.403 441.345 32.3232C441.313 32.2435 441.263 32.1792 441.196 32.1302C441.129 32.0813 441.039 32.0568 440.927 32.0568C440.844 32.0568 440.769 32.075 440.703 32.1114C440.639 32.1463 440.585 32.1974 440.541 32.2645C440.498 32.3316 440.465 32.4127 440.441 32.5078C440.418 32.6016 440.407 32.7071 440.407 32.8246V32.9085C440.407 33.0078 440.42 33.1001 440.447 33.1854C440.475 33.2694 440.516 33.3428 440.569 33.4057C440.622 33.4686 440.686 33.5183 440.762 33.5547C440.837 33.5896 440.923 33.6071 441.02 33.6071C441.141 33.6071 441.25 33.5826 441.345 33.5337C441.44 33.4847 441.523 33.4155 441.592 33.326L441.859 33.584C441.81 33.6553 441.746 33.7239 441.668 33.7896C441.59 33.8539 441.494 33.9064 441.381 33.9469C441.269 33.9875 441.139 34.0078 440.99 34.0078ZM442.063 30.8338V30.4436H442.916V34.6497H442.063V34.2574H442.411V30.8338H442.063Z" fill="white"/>
<g clip-path="url(#clip1_177_13646)">
<path d="M448.525 32.0703L450.126 33.6706C450.231 33.7754 450.401 33.7754 450.505 33.6706L452.106 32.0703" stroke="white" stroke-width="0.537037" stroke-linecap="round"/>
</g>
<path d="M48.5554 36.0859V29.8133H49.8271L50.4372 31.8068C50.5002 32.0073 50.5517 32.1906 50.5918 32.3568C50.6319 32.5229 50.6577 32.6432 50.6692 32.7176C50.6806 32.6432 50.7064 32.5229 50.7465 32.3568C50.7866 32.1906 50.8353 32.0073 50.8926 31.8068L51.4769 29.8133H52.7486V36.0859H51.7433V34.1354C51.7433 33.849 51.7518 33.5368 51.769 33.1988C51.7862 32.8609 51.8063 32.5229 51.8292 32.1849C51.8521 31.8469 51.8779 31.5261 51.9065 31.2225C51.9409 30.9189 51.9695 30.6526 51.9924 30.4234L51.1504 33.3879H50.1708L49.303 30.4234C49.3316 30.6411 49.3602 30.8989 49.3889 31.1968C49.4175 31.4889 49.4433 31.804 49.4662 32.1419C49.4949 32.4742 49.5178 32.8122 49.535 33.1559C49.5521 33.4996 49.5607 33.8261 49.5607 34.1354V36.0859H48.5554ZM54.6528 37.6326L55.3144 35.8282L53.5529 31.36H54.7301L55.6066 33.7745C55.6524 33.9063 55.6982 34.0667 55.744 34.2557C55.7899 34.439 55.8242 34.5908 55.8472 34.7111C55.8758 34.5908 55.913 34.439 55.9589 34.2557C56.0047 34.0667 56.0505 33.9063 56.0963 33.7745L56.9212 31.36H58.0555L55.7784 37.6326H54.6528ZM59.0402 36.0859V29.8133H60.965C61.5722 29.8133 62.0534 29.9594 62.4085 30.2516C62.7637 30.538 62.9413 30.9304 62.9413 31.4288C62.9413 31.7094 62.8783 31.9529 62.7522 32.1591C62.6262 32.3653 62.4544 32.5257 62.2367 32.6403C62.0247 32.7549 61.7784 32.8122 61.4977 32.8122V32.7778C61.8013 32.7721 62.0706 32.8293 62.3054 32.9496C62.546 33.0642 62.7351 33.2361 62.8725 33.4652C63.0158 33.6943 63.0874 33.9722 63.0874 34.2987C63.0874 34.6596 63.0043 34.9746 62.8382 35.2439C62.672 35.5131 62.4372 35.7222 62.1336 35.8711C61.8357 36.0143 61.4777 36.0859 61.0595 36.0859H59.0402ZM60.0885 35.1923H60.9908C61.3058 35.1923 61.5521 35.1092 61.7297 34.9431C61.913 34.7713 62.0047 34.5393 62.0047 34.2471C62.0047 33.955 61.913 33.7201 61.7297 33.5425C61.5521 33.3592 61.3058 33.2676 60.9908 33.2676H60.0885V35.1923ZM60.0885 32.3997H60.9478C61.2342 32.3997 61.4576 32.3252 61.618 32.1763C61.7841 32.0216 61.8672 31.8126 61.8672 31.549C61.8672 31.2855 61.7841 31.0793 61.618 30.9304C61.4576 30.7814 61.2342 30.707 60.9478 30.707H60.0885V32.3997ZM65.5844 36.1719C65.0975 36.1719 64.7137 36.043 64.433 35.7852C64.1523 35.5274 64.012 35.1809 64.012 34.7455C64.012 34.2815 64.1667 33.9235 64.476 33.6714C64.7853 33.4194 65.2236 33.2933 65.7907 33.2933H66.9679V32.8895C66.9679 32.6604 66.8934 32.4828 66.7444 32.3568C66.5955 32.225 66.3921 32.1591 66.1344 32.1591C65.8995 32.1591 65.7047 32.2107 65.5501 32.3138C65.3954 32.4169 65.3038 32.5572 65.2751 32.7348H64.2268C64.2784 32.288 64.4789 31.9329 64.8283 31.6693C65.1777 31.4058 65.6245 31.2741 66.1687 31.2741C66.7473 31.2741 67.2027 31.4202 67.535 31.7123C67.8729 31.9987 68.0419 32.3883 68.0419 32.8809V36.0859H67.0022V35.261H66.8304L67.0022 35.029C67.0022 35.3785 66.8733 35.6563 66.6156 35.8625C66.3578 36.0688 66.0141 36.1719 65.5844 36.1719ZM65.9367 35.3642C66.2403 35.3642 66.4867 35.2868 66.6757 35.1322C66.8705 34.9775 66.9679 34.777 66.9679 34.5307V33.955H65.8079C65.5902 33.955 65.4155 34.018 65.2837 34.144C65.152 34.27 65.0861 34.4362 65.0861 34.6424C65.0861 34.8658 65.1605 35.0434 65.3095 35.1751C65.4641 35.3011 65.6732 35.3642 65.9367 35.3642ZM69.3446 36.0859V31.36H70.3929V32.2622H70.6851L70.3929 32.5114C70.3929 32.1219 70.5046 31.8183 70.7281 31.6006C70.9572 31.3829 71.2694 31.2741 71.6646 31.2741C72.1286 31.2741 72.4981 31.4288 72.7731 31.7381C73.0538 32.0474 73.1941 32.4627 73.1941 32.984V36.0859H72.1201V33.0957C72.1201 32.8093 72.0456 32.5888 71.8966 32.4341C71.7477 32.2794 71.5386 32.2021 71.2694 32.2021C71.0059 32.2021 70.7968 32.2823 70.6421 32.4427C70.4932 32.6031 70.4187 32.8322 70.4187 33.1301V36.0859H69.3446ZM74.5226 36.0859V29.8133H75.5967V33.216H76.3442L77.4957 31.36H78.6986L77.2722 33.6456L78.7244 36.0859H77.4957L76.3442 34.1268H75.5967V36.0859H74.5226Z" fill="white"/>
</g>
<rect x="16.2" y="16.6932" width="467.6" height="303.535" rx="23.4" stroke="white" stroke-width="3.6"/>
</g>
<defs>
<filter id="filter0_d_177_13646" x="0.0604773" y="0.553153" width="528.559" height="364.495" filterUnits="userSpaceOnUse" color-interpolation-filters="sRGB">
<feFlood flood-opacity="0" result="BackgroundImageFix"/>
<feColorMatrix in="SourceAlpha" type="matrix" values="0 0 0 0 0 0 0 0 0 0 0 0 0 0 0 0 0 0 127 0" result="hardAlpha"/>
<feOffset dx="14.3399" dy="14.3399"/>
<feGaussianBlur stdDeviation="14.3399"/>
<feComposite in2="hardAlpha" operator="out"/>
<feColorMatrix type="matrix" values="0 0 0 0 0.4 0 0 0 0 0.403922 0 0 0 0 0.670588 0 0 0 0.16 0"/>
<feBlend mode="normal" in2="BackgroundImageFix" result="effect1_dropShadow_177_13646"/>
<feBlend mode="normal" in="SourceGraphic" in2="effect1_dropShadow_177_13646" result="shape"/>
</filter>
<filter id="filter1_d_177_13646" x="48.0744" y="39.438" width="403.852" height="296.444" filterUnits="userSpaceOnUse" color-interpolation-filters="sRGB">
<feFlood flood-opacity="0" result="BackgroundImageFix"/>
<feColorMatrix in="SourceAlpha" type="matrix" values="0 0 0 0 0 0 0 0 0 0 0 0 0 0 0 0 0 0 127 0" result="hardAlpha"/>
<feOffset dy="1.07407"/>
<feGaussianBlur stdDeviation="4.2963"/>
<feComposite in2="hardAlpha" operator="out"/>
<feColorMatrix type="matrix" values="0 0 0 0 0 0 0 0 0 0 0 0 0 0 0 0 0 0 0.03 0"/>
<feBlend mode="normal" in2="BackgroundImageFix" result="effect1_dropShadow_177_13646"/>
<feBlend mode="normal" in="SourceGraphic" in2="effect1_dropShadow_177_13646" result="shape"/>
</filter>
<clipPath id="clip0_177_13646">
<rect x="18" y="18.4932" width="464" height="299.935" rx="21.6" fill="white"/>
</clipPath>
<clipPath id="clip1_177_13646">
<rect width="4.2963" height="4.2963" fill="white" transform="matrix(1 0 0 -1 448.167 35.1138)"/>
</clipPath>
</defs>
</svg>
